<svg width="20" height="20" viewBox="0 0 20 20" fill="none" xmlns="http://www.w3.org/2000/svg">
<path d="M10.5859 1.83594C10.5859 1.5123 10.3236 1.25 10 1.25C9.67636 1.25 9.41406 1.5123 9.41406 1.83594V4.34631C9.41406 4.66995 9.67636 4.93225 10 4.93225C10.3236 4.93225 10.5859 4.66995 10.5859 4.34631V1.83594Z" fill="white"/>
<path d="M7.07526 5.38837C7.18954 5.50266 7.33954 5.56003 7.48953 5.56003C7.63937 5.56003 7.78937 5.50281 7.90381 5.38837C8.13254 5.15949 8.13254 4.78854 7.90381 4.55966L6.64847 3.30447C6.41974 3.07559 6.0488 3.07559 5.81992 3.30447C5.59103 3.53336 5.59103 3.9043 5.81992 4.13318L7.07526 5.38837Z" fill="white"/>
<path d="M12.5102 5.55988C12.6602 5.55988 12.8102 5.50266 12.9245 5.38821L14.1798 4.13303C14.4085 3.9043 14.4085 3.5332 14.1798 3.30447C13.9509 3.07559 13.58 3.07559 13.3511 3.30447L12.0959 4.55966C11.867 4.78854 11.867 5.15949 12.0959 5.38821C12.2104 5.50266 12.3604 5.55988 12.5102 5.55988Z" fill="white"/>
<path d="M8.3049 6.91065C8.2988 6.91569 8.293 6.92057 8.28751 6.92515L5.75424 9.09678C5.51956 9.29789 5.21957 9.40882 4.91013 9.40882H3.0957C1.38596 9.40882 0 10.7923 0 12.5045V18.1538C0 18.4773 0.262299 18.7397 0.585938 18.7397H5.60669C5.93048 18.7397 6.19263 18.4771 6.19263 18.1538V12.7748L9.17419 10.2191C9.32648 10.0886 9.41406 9.89802 9.41406 9.69752V7.44791C9.41406 6.87571 8.74939 6.55024 8.3049 6.91065Z" fill="white"/>
<path d="M16.9043 9.40882H15.0899C14.7804 9.40882 14.4804 9.29789 14.2458 9.09663L11.7125 6.92515C11.707 6.92057 11.7012 6.91569 11.6951 6.91065C11.2506 6.55024 10.5859 6.87571 10.5859 7.44791V9.69752C10.5859 9.89802 10.6735 10.0886 10.8258 10.2191L13.8074 12.7748V18.1536C13.8074 18.4771 14.0695 18.7396 14.3933 18.7396H19.4141C19.7377 18.7396 20 18.4773 20 18.1536V12.5045C20 10.7923 18.614 9.40882 16.9043 9.40882Z" fill="white"/>
<path d="M5.56531 6.94C5.56531 5.57877 4.45782 4.47128 3.09659 4.47128C1.73535 4.47128 0.627869 5.57877 0.627869 6.94C0.627869 8.30139 1.73535 9.40887 3.09659 9.40887C4.45782 9.40887 5.56531 8.30139 5.56531 6.94Z" fill="white"/>
<path d="M19.3724 6.94C19.3724 5.57877 18.2649 4.47128 16.9037 4.47128C15.5424 4.47128 14.4349 5.57877 14.4349 6.94C14.4349 8.30139 15.5424 9.40887 16.9037 9.40887C18.2649 9.40887 19.3724 8.30139 19.3724 6.94Z" fill="white"/>
</svg>
