<svg width="20" height="21" viewBox="0 0 20 21" fill="none" xmlns="http://www.w3.org/2000/svg">
<g clip-path="url(#clip0)">
<path d="M19.4603 9.15715C19.4598 9.15668 19.4594 9.15622 19.4589 9.15575L11.3005 0.807912C10.9527 0.451921 10.4904 0.255814 9.99862 0.255814C9.50682 0.255814 9.04448 0.451765 8.69658 0.807756L0.54244 9.15138C0.539693 9.15419 0.536947 9.15715 0.5342 9.15996C-0.179911 9.8949 -0.17869 11.0873 0.53771 11.8204C0.865011 12.1554 1.29729 12.3495 1.75948 12.3698C1.77825 12.3717 1.79717 12.3726 1.81624 12.3726H2.14141V18.5161C2.14141 19.7318 3.10805 20.7209 4.29641 20.7209H7.48824C7.81173 20.7209 8.07418 20.4525 8.07418 20.1214V15.3049C8.07418 14.7501 8.51516 14.2989 9.0573 14.2989H10.9399C11.4821 14.2989 11.9231 14.7501 11.9231 15.3049V20.1214C11.9231 20.4525 12.1854 20.7209 12.509 20.7209H15.7008C16.8892 20.7209 17.8558 19.7318 17.8558 18.5161V12.3726H18.1573C18.649 12.3726 19.1113 12.1767 19.4594 11.8207C20.1765 11.0864 20.1768 9.89193 19.4603 9.15715Z" fill="white"/>
</g>
<defs>
<clipPath id="clip0">
<rect width="20" height="20.4651" fill="white" transform="translate(0 0.255814)"/>
</clipPath>
</defs>
</svg>
