<svg width="517" height="440" viewBox="0 0 517 440" fill="none" xmlns="http://www.w3.org/2000/svg">
<path d="M399.046 425.188L391.698 427.617L378.833 400.429L389.679 396.845L399.046 425.188Z" fill="#FFB8B8"/>
<path d="M385.756 427.252L399.927 422.568L402.876 431.491L379.782 439.125C379.395 437.953 379.242 436.716 379.333 435.485C379.423 434.255 379.755 433.054 380.31 431.951C380.865 430.849 381.631 429.866 382.565 429.06C383.5 428.254 384.584 427.64 385.756 427.252Z" fill="#2F2E41"/>
<path d="M350.57 431.938L342.83 431.937L339.149 402.085L350.571 402.086L350.57 431.938Z" fill="#FFB8B8"/>
<path d="M337.302 429.726H352.228V439.124H327.905C327.905 437.89 328.148 436.668 328.62 435.528C329.092 434.387 329.785 433.351 330.657 432.479C331.53 431.606 332.566 430.914 333.706 430.442C334.846 429.969 336.068 429.726 337.302 429.726Z" fill="#2F2E41"/>
<path d="M343.416 321.124L343.022 322.87C337.689 346.486 335.79 380.848 337.383 405.005L338.613 423.667C338.656 424.306 338.939 424.906 339.407 425.344C339.875 425.782 340.492 426.026 341.133 426.026H350.411C351.03 426.026 351.627 425.799 352.089 425.387C352.551 424.976 352.847 424.41 352.919 423.796L360.12 362.584C360.188 362.01 360.45 361.477 360.863 361.073C361.276 360.67 361.815 360.42 362.39 360.365C362.965 360.311 363.541 360.455 364.023 360.774C364.504 361.093 364.862 361.568 365.036 362.119L383.699 417.433C383.852 417.919 384.149 418.347 384.549 418.661C384.95 418.975 385.436 419.16 385.944 419.193L400.117 420.107C400.526 420.134 400.935 420.06 401.309 419.893C401.684 419.726 402.012 419.47 402.265 419.147C402.518 418.825 402.689 418.446 402.763 418.043C402.837 417.639 402.811 417.224 402.689 416.833L394.158 393.375C387.566 372.324 384.023 340.336 383.636 318.28C383.63 317.932 383.552 317.589 383.407 317.273C383.262 316.957 383.053 316.673 382.794 316.442C382.534 316.21 382.229 316.034 381.899 315.925C381.568 315.817 381.218 315.778 380.872 315.811L345.64 319.166C345.11 319.217 344.61 319.433 344.211 319.785C343.811 320.136 343.533 320.605 343.416 321.124Z" fill="#2F2E41"/>
<path d="M364.047 223.067C372.609 223.067 379.551 216.125 379.551 207.562C379.551 198.999 372.609 192.057 364.047 192.057C355.484 192.057 348.542 198.999 348.542 207.562C348.542 216.125 355.484 223.067 364.047 223.067Z" fill="#A0616A"/>
<path d="M353.869 326.204C350.781 326.198 347.696 326.035 344.625 325.716C343.638 325.609 342.732 325.12 342.102 324.354C341.471 323.587 341.165 322.605 341.249 321.616L346.535 270.542C347.81 256.095 349.779 242.15 359.744 230.339C360.082 229.939 360.5 229.613 360.97 229.382C361.441 229.151 361.954 229.019 362.478 228.996L362.853 228.982C366.783 228.818 368.595 228.961 369.104 229.472L371.846 232.173C388.564 244.537 389.258 322.864 385.139 321.32C384.343 321.023 374.828 321.321 374.166 321.773C368.795 325.434 360.164 326.203 353.869 326.204Z" fill="#E4B61A"/>
<path d="M293.038 297.854C293.432 297.014 294.006 296.271 294.719 295.677C295.432 295.083 296.267 294.652 297.164 294.416C298.061 294.179 299 294.142 299.913 294.307C300.826 294.473 301.692 294.836 302.449 295.372L320.796 282.247L321.241 293.961L303.751 304.629C302.766 305.842 301.37 306.652 299.828 306.904C298.286 307.157 296.705 306.835 295.385 306C294.064 305.165 293.096 303.875 292.663 302.373C292.231 300.872 292.364 299.264 293.038 297.854Z" fill="#A0616A"/>
<path d="M311.259 301.317L305.045 290.378L361.648 249.563C362.925 248.642 364.378 247.994 365.917 247.66C367.456 247.326 369.048 247.313 370.592 247.622C372.136 247.931 373.6 248.555 374.892 249.455C376.184 250.355 377.277 251.512 378.102 252.854C378.926 254.195 379.466 255.692 379.686 257.252C379.906 258.811 379.802 260.399 379.381 261.917C378.96 263.434 378.23 264.848 377.237 266.071C376.245 267.293 375.011 268.298 373.613 269.023L311.259 301.317Z" fill="#E4B61A"/>
<path d="M371.013 220.67C371.538 221.188 372.232 221.499 372.968 221.546C373.703 221.594 374.432 221.374 375.018 220.927C378.672 218.218 381.88 214.847 383.779 210.734C385.954 206.022 386.197 200.239 383.574 195.76C381.357 191.974 377.442 189.531 373.54 187.524C372.025 186.669 370.393 186.04 368.696 185.657C366.98 185.279 365.185 185.568 363.676 186.467C362.938 186.93 362.356 187.605 362.007 188.403C361.658 189.202 361.557 190.087 361.719 190.943C359.845 188.805 357.444 187.193 354.755 186.269C353.062 185.606 351.207 185.472 349.436 185.883C346.96 186.585 345.152 188.785 344.164 191.162C343.364 192.969 343.088 194.965 343.367 196.922C343.514 197.896 343.863 198.828 344.393 199.658C344.922 200.488 345.62 201.198 346.441 201.742C348.489 203.008 351.1 202.917 353.452 202.4C355.803 201.882 358.079 200.982 360.475 200.754C362.872 200.527 365.541 201.124 366.999 203.04C368.026 204.389 368.29 206.151 368.521 207.831L369.72 216.567C369.818 217.831 370.141 219.067 370.673 220.217C370.765 220.383 370.879 220.535 371.013 220.67Z" fill="#2F2E41"/>
<path d="M404.465 329.307C403.713 328.764 403.089 328.062 402.637 327.251C402.185 326.441 401.917 325.541 401.851 324.615C401.784 323.689 401.922 322.761 402.253 321.894C402.585 321.027 403.103 320.243 403.77 319.598L394.271 299.137L405.865 300.87L413.107 320.035C414.117 321.227 414.654 322.749 414.616 324.311C414.579 325.873 413.97 327.367 412.905 328.51C411.839 329.653 410.392 330.365 408.836 330.512C407.281 330.659 405.725 330.23 404.465 329.307V329.307Z" fill="#A0616A"/>
<path d="M410.816 307.572L399.877 313.786L359.064 257.181C358.143 255.904 357.495 254.45 357.161 252.911C356.827 251.372 356.814 249.781 357.123 248.237C357.432 246.693 358.056 245.229 358.956 243.937C359.856 242.644 361.013 241.552 362.355 240.727C363.696 239.902 365.193 239.363 366.752 239.142C368.312 238.922 369.9 239.026 371.417 239.447C372.934 239.869 374.348 240.598 375.571 241.591C376.794 242.583 377.799 243.817 378.523 245.216L410.816 307.572Z" fill="#E4B61A"/>
<path d="M311.181 104.339H308.769V38.2514C308.769 28.1065 304.739 18.3771 297.565 11.2036C290.392 4.03005 280.663 5.02275e-06 270.518 0H130.502C120.357 0 110.628 4.03005 103.455 11.2036C96.2814 18.3771 92.2515 28.1065 92.2515 38.2514V400.821C92.2515 410.966 96.2814 420.695 103.455 427.869C110.628 435.042 120.357 439.073 130.502 439.073H270.518C280.663 439.072 290.392 435.042 297.565 427.869C304.738 420.695 308.768 410.966 308.768 400.821V151.382H311.18L311.181 104.339Z" fill="#E6E6E6"/>
<path d="M272.062 9.948H253.787C254.627 12.0088 254.948 14.2447 254.721 16.4587C254.494 18.6727 253.725 20.7969 252.484 22.6441C251.242 24.4912 249.566 26.0047 247.601 27.0512C245.637 28.0976 243.446 28.6449 241.22 28.6448H161.006C158.781 28.6447 156.59 28.0973 154.625 27.0508C152.661 26.0042 150.985 24.4907 149.743 22.6436C148.502 20.7964 147.734 18.6724 147.507 16.4584C147.28 14.2445 147.601 12.0087 148.441 9.948H131.371C123.795 9.948 116.529 12.9576 111.172 18.3147C105.815 23.6718 102.806 30.9377 102.806 38.5138V400.557C102.806 408.133 105.815 415.399 111.172 420.756C116.529 426.113 123.795 429.123 131.371 429.123H272.062C279.638 429.123 286.903 426.113 292.26 420.756C297.617 415.399 300.627 408.133 300.627 400.557V38.5132C300.627 30.9372 297.617 23.6715 292.26 18.3145C286.903 12.9575 279.638 9.94799 272.062 9.948H272.062Z" fill="white"/>
<path d="M201.716 224.103C188.607 224.103 175.792 220.216 164.892 212.932C153.992 205.649 145.496 195.297 140.48 183.185C135.463 171.073 134.15 157.746 136.708 144.888C139.265 132.03 145.578 120.219 154.848 110.949C164.117 101.679 175.928 95.3664 188.785 92.8088C201.643 90.2512 214.97 91.5639 227.081 96.5808C239.193 101.598 249.545 110.093 256.828 120.994C264.111 131.894 267.998 144.71 267.998 157.819C267.978 175.393 260.989 192.241 248.563 204.667C236.137 217.094 219.289 224.083 201.716 224.103ZM201.716 92.7977C188.857 92.7977 176.286 96.6112 165.593 103.756C154.901 110.901 146.567 121.055 141.646 132.937C136.725 144.818 135.437 157.891 137.946 170.504C140.455 183.117 146.647 194.703 155.74 203.796C164.834 212.89 176.419 219.083 189.031 221.591C201.644 224.1 214.717 222.813 226.598 217.891C238.479 212.97 248.633 204.636 255.778 193.943C262.922 183.251 266.736 170.679 266.736 157.819C266.716 140.58 259.86 124.053 247.67 111.864C235.481 99.6739 218.954 92.8172 201.716 92.7977Z" fill="#3F3D56"/>
<path d="M226.06 138.564C231.737 133.767 235.185 126.19 234.281 118.813C233.376 111.436 227.776 104.654 220.511 103.088C213.246 101.521 204.964 105.858 202.758 112.954C201.543 99.2719 200.144 85.016 192.87 73.3639C186.283 62.8133 174.875 55.264 162.511 53.9134C150.147 52.5628 137.129 57.6638 129.418 67.4229C121.707 77.1819 119.819 91.3696 125.219 102.574C129.198 110.828 136.528 116.97 144.207 121.968C168.708 137.911 199.101 143.297 228.021 139.041L226.06 138.564Z" fill="#E6E6E6"/>
<path d="M141.645 57.9464C151.846 66.2562 161.206 75.5501 169.587 85.6937C182.703 101.514 193.317 119.251 201.058 138.288C201.625 139.677 199.37 140.281 198.81 138.908C186.143 107.969 165.922 80.7006 139.996 59.5955C138.831 58.6474 140.49 57.0062 141.645 57.9464Z" fill="white"/>
<path d="M145.116 289.125C148.951 289.125 152.06 286.016 152.06 282.181C152.06 278.346 148.951 275.237 145.116 275.237C141.281 275.237 138.172 278.346 138.172 282.181C138.172 286.016 141.281 289.125 145.116 289.125Z" fill="#3F3D56"/>
<path d="M260.21 287.231H171.834C170.495 287.231 169.21 286.699 168.263 285.752C167.316 284.805 166.784 283.52 166.784 282.181C166.784 280.841 167.316 279.557 168.263 278.61C169.21 277.663 170.495 277.131 171.834 277.131H260.21C261.549 277.131 262.834 277.663 263.781 278.61C264.728 279.557 265.26 280.841 265.26 282.181C265.26 283.52 264.728 284.805 263.781 285.752C262.834 286.699 261.549 287.231 260.21 287.231Z" fill="#CCCCCC"/>
<path d="M232.8 287.292H171.469C170.113 287.292 168.813 286.753 167.855 285.795C166.896 284.836 166.358 283.536 166.358 282.181C166.358 280.825 166.896 279.525 167.855 278.567C168.813 277.608 170.113 277.07 171.469 277.07H232.8C234.156 277.07 235.456 277.608 236.414 278.567C237.373 279.525 237.911 280.825 237.911 282.181C237.911 283.536 237.373 284.836 236.414 285.795C235.456 286.753 234.156 287.292 232.8 287.292Z" fill="#E4B61A"/>
<path d="M145.116 319.426C148.951 319.426 152.06 316.317 152.06 312.482C152.06 308.647 148.951 305.538 145.116 305.538C141.281 305.538 138.172 308.647 138.172 312.482C138.172 316.317 141.281 319.426 145.116 319.426Z" fill="#3F3D56"/>
<path d="M260.21 317.532H171.834C170.495 317.532 169.21 317 168.263 316.053C167.316 315.106 166.784 313.822 166.784 312.482C166.784 311.143 167.316 309.858 168.263 308.911C169.21 307.964 170.495 307.432 171.834 307.432H260.21C261.549 307.432 262.834 307.964 263.781 308.911C264.728 309.858 265.26 311.143 265.26 312.482C265.26 313.822 264.728 315.106 263.781 316.053C262.834 317 261.549 317.532 260.21 317.532Z" fill="#CCCCCC"/>
<path d="M145.116 349.727C148.951 349.727 152.06 346.619 152.06 342.783C152.06 338.948 148.951 335.839 145.116 335.839C141.281 335.839 138.172 338.948 138.172 342.783C138.172 346.619 141.281 349.727 145.116 349.727Z" fill="#3F3D56"/>
<path d="M260.21 347.834H171.834C170.495 347.834 169.21 347.302 168.263 346.354C167.316 345.407 166.784 344.123 166.784 342.783C166.784 341.444 167.316 340.159 168.263 339.212C169.21 338.265 170.495 337.733 171.834 337.733H260.21C261.549 337.733 262.834 338.265 263.781 339.212C264.728 340.159 265.26 341.444 265.26 342.783C265.26 344.123 264.728 345.407 263.781 346.354C262.834 347.302 261.549 347.834 260.21 347.834Z" fill="#CCCCCC"/>
<path d="M212.6 317.593H171.469C170.113 317.593 168.813 317.055 167.855 316.096C166.896 315.138 166.358 313.838 166.358 312.482C166.358 311.127 166.896 309.827 167.855 308.868C168.813 307.91 170.113 307.371 171.469 307.371H212.6C213.955 307.371 215.255 307.91 216.214 308.868C217.172 309.827 217.711 311.127 217.711 312.482C217.711 313.838 217.172 315.138 216.214 316.096C215.255 317.055 213.955 317.593 212.6 317.593Z" fill="#E4B61A"/>
<path d="M249.213 347.895H171.469C170.113 347.895 168.813 347.356 167.855 346.398C166.896 345.439 166.358 344.139 166.358 342.783C166.358 341.428 166.896 340.128 167.855 339.169C168.813 338.211 170.113 337.672 171.469 337.672H249.213C250.568 337.672 251.868 338.211 252.827 339.169C253.785 340.128 254.324 341.428 254.324 342.783C254.324 344.139 253.785 345.439 252.827 346.398C251.868 347.356 250.568 347.895 249.213 347.895Z" fill="#E4B61A"/>
<path d="M236.81 147.513H228.134V121.874C228.135 121.121 228.434 120.398 228.967 119.866C229.499 119.333 230.221 119.034 230.974 119.033H233.969C234.722 119.034 235.444 119.333 235.977 119.866C236.509 120.398 236.809 121.121 236.81 121.874V147.513Z" fill="#3F3D56"/>
<path d="M242.07 191.142H159.135L158.838 144.398C158.834 143.676 158.976 142.961 159.255 142.294C159.533 141.628 159.943 141.025 160.459 140.52L181.293 120.227C182.281 119.261 183.606 118.715 184.988 118.705L219.857 118.386C220.648 118.381 221.43 118.55 222.148 118.881C222.866 119.211 223.503 119.696 224.014 120.299L224.017 120.303L240.578 140.615C241.542 141.798 242.068 143.277 242.07 144.803L242.07 191.142Z" fill="#3F3D56"/>
<path d="M242.07 191.142H197.501V149.25C197.502 147.973 197.957 146.739 198.785 145.768L218.149 123.064V123.064C218.652 122.473 219.278 121.999 219.983 121.673C220.688 121.348 221.455 121.18 222.231 121.18H222.252C223.031 121.183 223.801 121.355 224.507 121.686C225.213 122.017 225.839 122.497 226.34 123.095L240.813 140.325C241.624 141.292 242.069 142.514 242.07 143.776V191.142Z" fill="#E4B61A"/>
<path d="M223.164 175.052H216.716C216.298 175.051 215.897 174.885 215.601 174.589C215.305 174.293 215.139 173.892 215.138 173.474V168.067C215.139 167.649 215.305 167.247 215.601 166.952C215.897 166.656 216.298 166.489 216.716 166.489H223.164C223.583 166.489 223.984 166.656 224.28 166.952C224.576 167.247 224.742 167.649 224.743 168.067V173.474C224.742 173.892 224.576 174.293 224.28 174.589C223.984 174.885 223.583 175.051 223.164 175.052Z" fill="white"/>
<path d="M223.164 161.197H216.716C216.298 161.197 215.897 161.031 215.601 160.735C215.305 160.439 215.139 160.038 215.138 159.619V154.338C215.139 153.92 215.305 153.519 215.601 153.223C215.897 152.927 216.298 152.761 216.716 152.76H223.164C223.583 152.761 223.984 152.927 224.28 153.223C224.576 153.519 224.742 153.92 224.743 154.338V159.619C224.742 160.038 224.576 160.439 224.28 160.735C223.984 161.031 223.583 161.197 223.164 161.197Z" fill="white"/>
<path d="M183.287 172.947H176.839C176.421 172.947 176.019 172.78 175.724 172.484C175.428 172.188 175.261 171.787 175.261 171.369V165.963C175.261 165.544 175.428 165.143 175.724 164.847C176.019 164.551 176.421 164.385 176.839 164.385H183.287C183.705 164.385 184.107 164.551 184.402 164.847C184.698 165.143 184.865 165.544 184.865 165.963V171.369C184.865 171.787 184.698 172.188 184.402 172.484C184.107 172.78 183.705 172.947 183.287 172.947Z" fill="white"/>
<path d="M183.287 159.093H176.839C176.421 159.092 176.019 158.926 175.724 158.63C175.428 158.334 175.261 157.933 175.261 157.515V152.234C175.261 151.816 175.428 151.415 175.724 151.119C176.019 150.823 176.421 150.656 176.839 150.656H183.287C183.705 150.656 184.107 150.823 184.402 151.119C184.698 151.415 184.865 151.816 184.865 152.234V157.515C184.865 157.933 184.698 158.334 184.402 158.63C184.107 158.926 183.705 159.092 183.287 159.093Z" fill="white"/>
<path d="M258.12 191.689H145.312C145.145 191.689 144.984 191.622 144.866 191.504C144.748 191.386 144.681 191.225 144.681 191.058C144.681 190.89 144.748 190.73 144.866 190.611C144.984 190.493 145.145 190.426 145.312 190.426H258.12C258.288 190.426 258.448 190.493 258.567 190.611C258.685 190.73 258.751 190.89 258.751 191.058C258.751 191.225 258.685 191.386 258.567 191.504C258.448 191.622 258.288 191.689 258.12 191.689Z" fill="#3F3D56"/>
<path d="M516.369 440H0.631258C0.463838 440 0.303274 439.934 0.184891 439.815C0.0665068 439.697 0 439.536 0 439.369C0 439.201 0.0665068 439.041 0.184891 438.922C0.303274 438.804 0.463838 438.738 0.631258 438.738H516.369C516.536 438.738 516.697 438.804 516.815 438.922C516.933 439.041 517 439.201 517 439.369C517 439.536 516.933 439.697 516.815 439.815C516.697 439.934 516.536 440 516.369 440Z" fill="#3F3D56"/>
</svg>
