<svg width="641" height="285" viewBox="0 0 641 285" fill="none" xmlns="http://www.w3.org/2000/svg">
<g clip-path="url(#clip0)">
<path d="M272.887 181.817H13.204C9.7033 181.813 6.34709 180.421 3.87171 177.946C1.39633 175.47 0.00392932 172.114 0 168.613V10.0553C0.00295068 7.38944 1.06324 4.8336 2.94827 2.94852C4.83329 1.06343 7.38909 0.0030434 10.055 0H275.886C278.592 0.00304717 281.186 1.07915 283.099 2.9922C285.012 4.90525 286.088 7.49902 286.091 10.2045V168.613C286.087 172.114 284.694 175.47 282.219 177.946C279.743 180.421 276.387 181.813 272.887 181.817Z" fill="white"/>
<path d="M272.887 181.817H13.204C9.7033 181.813 6.34709 180.421 3.87171 177.946C1.39633 175.47 0.00392932 172.114 0 168.613V10.0553C0.00295068 7.38944 1.06324 4.8336 2.94827 2.94852C4.83329 1.06343 7.38909 0.0030434 10.055 0H275.886C278.592 0.00304717 281.186 1.07915 283.099 2.9922C285.012 4.90525 286.088 7.49902 286.091 10.2045V168.613C286.087 172.114 284.694 175.47 282.219 177.946C279.743 180.421 276.387 181.813 272.887 181.817ZM10.055 2.85492C8.14601 2.85715 6.3159 3.6165 4.96611 4.96636C3.61632 6.31622 2.85706 8.14636 2.85492 10.0553V168.613C2.85804 171.357 3.9494 173.988 5.88955 175.928C7.82971 177.868 10.4602 178.959 13.204 178.962H272.887C275.63 178.959 278.261 177.868 280.201 175.928C282.141 173.988 283.233 171.357 283.236 168.613V10.2045C283.234 8.25593 282.459 6.3878 281.081 5.00997C279.703 3.63213 277.835 2.8571 275.886 2.85492H10.055Z" fill="#E6E6E6"/>
<path d="M118.559 141.673H40.7479C38.8442 141.67 37.0061 140.977 35.5748 139.721C34.1434 138.466 33.216 136.734 32.9647 134.847C32.9174 134.508 32.8947 134.165 32.8969 133.822V47.9956C32.8992 45.9141 33.7271 43.9185 35.199 42.4466C36.6708 40.9748 38.6664 40.1469 40.7479 40.1445H118.559C120.64 40.1469 122.636 40.9748 124.108 42.4466C125.58 43.9185 126.407 45.9141 126.41 47.9956V133.822C126.407 135.903 125.58 137.899 124.108 139.371C122.636 140.842 120.64 141.67 118.559 141.673ZM40.7479 44.4269C39.8018 44.428 38.8947 44.8043 38.2257 45.4734C37.5567 46.1424 37.1803 47.0494 37.1792 47.9956V133.822C37.1777 133.968 37.1868 134.115 37.2064 134.26C37.3157 135.123 37.7354 135.917 38.3872 136.493C39.0389 137.069 39.8781 137.388 40.7479 137.39H118.559C119.505 137.389 120.412 137.013 121.081 136.344C121.75 135.675 122.126 134.768 122.127 133.822V47.9956C122.126 47.0494 121.75 46.1424 121.081 45.4734C120.412 44.8043 119.505 44.428 118.559 44.4269H40.7479Z" fill="#E6E6E6"/>
<path d="M247.484 113.766H153.271C151.757 113.766 150.305 113.164 149.234 112.093C148.163 111.022 147.562 109.57 147.562 108.056C147.562 106.541 148.163 105.089 149.234 104.018C150.305 102.948 151.757 102.346 153.271 102.346H247.484C248.998 102.346 250.45 102.948 251.521 104.018C252.592 105.089 253.194 106.541 253.194 108.056C253.194 109.57 252.592 111.022 251.521 112.093C250.45 113.164 248.998 113.766 247.484 113.766Z" fill="#E6E6E6"/>
<path d="M204.66 89.4988H153.271C151.757 89.4988 150.305 88.8972 149.234 87.8264C148.163 86.7556 147.562 85.3033 147.562 83.7889C147.562 82.2746 148.163 80.8223 149.234 79.7515C150.305 78.6807 151.757 78.0791 153.271 78.0791H204.66C206.174 78.0791 207.627 78.6807 208.697 79.7515C209.768 80.8223 210.37 82.2746 210.37 83.7889C210.37 85.3033 209.768 86.7556 208.697 87.8264C207.627 88.8972 206.174 89.4988 204.66 89.4988Z" fill="#E6E6E6"/>
<path d="M105.309 88.5497C105.309 101.164 93.6458 99.2557 79.2582 99.2557C64.8705 99.2557 53.207 101.164 53.207 88.5497C53.207 75.9359 58.9043 53.5769 79.2582 53.5769C100.313 53.5769 105.309 75.9359 105.309 88.5497Z" fill="#2F2E41"/>
<path d="M106.363 109.779C105.861 108.328 104.859 107.104 103.537 106.324C103.282 106.168 103.014 106.032 102.737 105.917C101.578 105.435 100.303 105.301 99.0686 105.532C97.8343 105.763 96.6939 106.348 95.7869 107.217C94.8799 108.085 94.2455 109.199 93.9614 110.422C93.6772 111.645 93.7555 112.925 94.1868 114.104L104.564 137.693H118.232L106.363 109.779Z" fill="#3F3D56"/>
<path d="M61.0768 111.063C60.2565 110.667 59.3617 110.449 58.4511 110.422C57.5404 110.396 56.6345 110.563 55.7928 110.911C54.9511 111.26 54.1925 111.782 53.5668 112.444C52.9412 113.106 52.4626 113.893 52.1624 114.753L42.4985 137.486C42.9934 137.624 43.5049 137.694 44.0187 137.693H56.1451L64.3384 119.079C64.8849 117.576 64.8538 115.924 64.2512 114.443C63.6485 112.962 62.5172 111.758 61.0768 111.063Z" fill="#3F3D56"/>
<path d="M79.1711 99.2347C88.8526 99.2347 96.701 91.3863 96.701 81.7048C96.701 72.0232 88.8526 64.1748 79.1711 64.1748C69.4895 64.1748 61.6411 72.0232 61.6411 81.7048C61.6411 91.3863 69.4895 99.2347 79.1711 99.2347Z" fill="#FFB8B8"/>
<path d="M103.843 106.603C103.744 106.51 103.644 106.41 103.537 106.324C102.315 105.223 100.868 104.399 99.2974 103.91C97.7265 103.42 96.0681 103.278 94.4366 103.491L62.133 107.58C59.1739 107.947 56.4737 109.451 54.6056 111.775C52.7374 114.099 51.8481 117.059 52.1265 120.028C52.5691 125.01 53.2828 131.298 54.4249 137.693H105.457L107.334 115.881C107.485 114.172 107.249 112.451 106.645 110.844C106.041 109.238 105.084 107.789 103.843 106.603Z" fill="#3F3D56"/>
<path d="M58.9169 79.985H65.8503L68.9091 71.4202L69.5207 79.985H72.8346L74.6189 74.9889L74.9758 79.985H99.5995C99.5995 75.0633 97.6444 70.3433 94.1643 66.8632C90.6842 63.3831 85.9641 61.428 81.0425 61.428H77.4739C72.5522 61.428 67.8322 63.3831 64.3521 66.8632C60.872 70.3433 58.9169 75.0633 58.9169 79.985Z" fill="#2F2E41"/>
<path d="M354.909 168.613V10.2045C354.912 7.49902 355.988 4.90525 357.901 2.9922C359.815 1.07915 362.408 0.00304717 365.114 0H630.945C633.611 0.0030434 636.167 1.06343 638.052 2.94852C639.937 4.8336 640.997 7.38944 641 10.0553V168.613C640.996 172.114 639.604 175.47 637.128 177.946C634.653 180.421 631.297 181.813 627.796 181.817H368.113C364.613 181.813 361.257 180.421 358.781 177.946C356.306 175.47 354.913 172.114 354.909 168.613Z" fill="white"/>
<path d="M354.909 168.613V10.2045C354.912 7.49902 355.988 4.90525 357.901 2.9922C359.815 1.07915 362.408 0.00304717 365.114 0H630.945C633.611 0.0030434 636.167 1.06343 638.052 2.94852C639.937 4.8336 640.997 7.38944 641 10.0553V168.613C640.996 172.114 639.604 175.47 637.128 177.946C634.653 180.421 631.297 181.813 627.796 181.817H368.113C364.613 181.813 361.257 180.421 358.781 177.946C356.306 175.47 354.913 172.114 354.909 168.613ZM365.114 2.85492C363.165 2.8571 361.297 3.63213 359.919 5.00997C358.541 6.3878 357.766 8.25593 357.764 10.2045V168.613C357.767 171.357 358.859 173.988 360.799 175.928C362.739 177.868 365.37 178.959 368.113 178.962H627.796C630.54 178.959 633.17 177.868 635.11 175.928C637.051 173.988 638.142 171.357 638.145 168.613V10.0553C638.143 8.14636 637.384 6.31622 636.034 4.96636C634.684 3.6165 632.854 2.85715 630.945 2.85492H365.114Z" fill="#E6E6E6"/>
<path d="M514.59 133.822V47.9956C514.593 45.9141 515.42 43.9185 516.892 42.4466C518.364 40.9748 520.36 40.1469 522.441 40.1445H600.252C602.334 40.1469 604.329 40.9748 605.801 42.4466C607.273 43.9185 608.101 45.9141 608.103 47.9956V133.822C608.105 134.165 608.083 134.508 608.035 134.847C607.784 136.734 606.857 138.466 605.425 139.721C603.994 140.977 602.156 141.67 600.252 141.673H522.441C520.36 141.67 518.364 140.842 516.892 139.371C515.42 137.899 514.593 135.903 514.59 133.822ZM522.441 44.4269C521.495 44.428 520.588 44.8043 519.919 45.4734C519.25 46.1424 518.874 47.0494 518.873 47.9956V133.822C518.874 134.768 519.25 135.675 519.919 136.344C520.588 137.013 521.495 137.389 522.441 137.39H600.252C601.122 137.388 601.961 137.069 602.613 136.493C603.265 135.917 603.684 135.123 603.794 134.26C603.813 134.115 603.822 133.968 603.821 133.822V47.9956C603.82 47.0494 603.443 46.1424 602.774 45.4734C602.105 44.8043 601.198 44.428 600.252 44.4269H522.441Z" fill="#E6E6E6"/>
<path d="M387.806 108.056C387.808 106.542 388.41 105.091 389.481 104.02C390.551 102.95 392.002 102.348 393.516 102.346H487.729C489.243 102.346 490.695 102.948 491.766 104.018C492.837 105.089 493.439 106.541 493.439 108.056C493.439 109.57 492.837 111.022 491.766 112.093C490.695 113.164 489.243 113.766 487.729 113.766H393.516C392.002 113.764 390.551 113.162 389.481 112.091C388.41 111.021 387.808 109.57 387.806 108.056Z" fill="#E6E6E6"/>
<path d="M387.806 83.7889C387.808 82.2751 388.41 80.8238 389.481 79.7534C390.551 78.683 392.002 78.0808 393.516 78.0791H444.905C446.419 78.0791 447.872 78.6807 448.942 79.7515C450.013 80.8223 450.615 82.2746 450.615 83.7889C450.615 85.3033 450.013 86.7556 448.942 87.8264C447.872 88.8972 446.419 89.4988 444.905 89.4988H393.516C392.002 89.4971 390.551 88.8949 389.481 87.8245C388.41 86.7541 387.808 85.3028 387.806 83.7889Z" fill="#E6E6E6"/>
<path d="M542.117 73.4971C547.121 83.3348 551.065 93.4815 562.102 93.4815C567.402 93.4815 572.485 91.376 576.233 87.6282C579.981 83.8804 582.086 78.7973 582.086 73.4971C582.086 68.1969 579.981 63.1137 576.233 59.3659C572.485 55.6181 567.402 53.5126 562.102 53.5126C550.885 53.3722 532.804 55.186 542.117 73.4971Z" fill="#2F2E41"/>
<path d="M561.118 93.8707C570.8 93.8707 578.648 86.0223 578.648 76.3407C578.648 66.6592 570.8 58.8108 561.118 58.8108C551.437 58.8108 543.588 66.6592 543.588 76.3407C543.588 86.0223 551.437 93.8707 561.118 93.8707Z" fill="#A0616A"/>
<path d="M585.051 108.294C583.921 107.063 582.692 105.927 581.375 104.897C575.621 100.387 568.409 98.1515 561.113 98.6161C560.82 98.6304 560.528 98.6518 560.235 98.6804C556.009 99.0181 551.904 100.252 548.192 102.3C544.481 104.348 541.248 107.162 538.709 110.557C536.13 114.003 534.317 117.96 533.392 122.164C532.466 126.367 532.449 130.72 533.341 134.931C533.534 135.823 533.705 136.722 533.869 137.622H591.981L592.652 133.125C593.323 128.681 592.988 124.143 591.673 119.846C590.357 115.549 588.095 111.601 585.051 108.294Z" fill="#3F3D56"/>
<path d="M593.951 112.984C593.542 110.638 592.322 108.511 590.505 106.972C588.689 105.433 586.39 104.58 584.009 104.562C583.916 104.562 583.816 104.569 583.724 104.569C582.931 104.587 582.143 104.697 581.375 104.897C580.086 105.24 578.876 105.834 577.817 106.645C576.757 107.457 575.868 108.47 575.201 109.626C574.534 110.781 574.102 112.058 573.929 113.381C573.756 114.704 573.847 116.049 574.195 117.337L579.684 137.622H598.155L593.951 112.984Z" fill="#3F3D56"/>
<path d="M553.304 107.666C552.608 106.299 551.61 105.108 550.385 104.183C549.518 103.528 548.549 103.022 547.516 102.684C547.094 102.54 546.662 102.426 546.224 102.342C543.837 101.89 541.367 102.306 539.26 103.516C537.153 104.725 535.547 106.648 534.733 108.937L524.684 137.621H543.755L553.483 116.524C554.131 115.131 554.452 113.609 554.421 112.074C554.391 110.539 554.008 109.031 553.304 107.666Z" fill="#3F3D56"/>
<path d="M542.516 66.4336C546.522 69.1946 551.277 70.6639 556.142 70.6445C554.406 71.8478 552.431 72.6606 550.351 73.0269C556.819 74.4145 563.505 74.452 569.988 73.1373C571.43 72.9062 572.82 72.4286 574.099 71.7253C574.737 71.3694 575.292 70.8833 575.729 70.2986C576.166 69.7139 576.476 69.0438 576.637 68.3318C577.068 65.8705 575.15 63.6343 573.157 62.1272C570.105 59.8551 566.587 58.2896 562.856 57.5441C559.125 56.7985 555.275 56.8916 551.585 57.8166C549.175 58.4394 546.761 59.4919 545.196 61.4271C543.63 63.3623 543.167 66.3457 544.658 68.3385L542.516 66.4336Z" fill="#2F2E41"/>
<path d="M450.341 284.594H190.659C187.158 284.59 183.802 283.198 181.326 280.723C178.851 278.247 177.459 274.891 177.455 271.39V112.832C177.458 110.167 178.518 107.611 180.403 105.726C182.288 103.841 184.844 102.78 187.51 102.777H453.341C456.046 102.78 458.64 103.856 460.553 105.769C462.466 107.682 463.542 110.276 463.545 112.982V271.39C463.541 274.891 462.149 278.247 459.674 280.723C457.198 283.198 453.842 284.59 450.341 284.594Z" fill="white"/>
<path d="M450.341 284.594H190.659C187.158 284.59 183.802 283.198 181.326 280.723C178.851 278.247 177.459 274.891 177.455 271.39V112.832C177.458 110.167 178.518 107.611 180.403 105.726C182.288 103.841 184.844 102.78 187.51 102.777H453.341C456.046 102.78 458.64 103.856 460.553 105.769C462.466 107.682 463.542 110.276 463.545 112.982V271.39C463.541 274.891 462.149 278.247 459.674 280.723C457.198 283.198 453.842 284.59 450.341 284.594ZM187.51 105.632C185.601 105.634 183.771 106.394 182.421 107.743C181.071 109.093 180.312 110.923 180.31 112.832V271.39C180.313 274.134 181.404 276.765 183.344 278.705C185.284 280.645 187.915 281.736 190.659 281.739H450.341C453.085 281.736 455.716 280.645 457.656 278.705C459.596 276.765 460.687 274.134 460.69 271.39V112.982C460.688 111.033 459.913 109.165 458.535 107.787C457.158 106.409 455.289 105.634 453.341 105.632H187.51Z" fill="#3F3D56"/>
<path d="M296.014 244.45H218.203C216.299 244.447 214.461 243.754 213.029 242.498C211.598 241.243 210.671 239.511 210.419 237.624C210.372 237.285 210.349 236.942 210.352 236.599V150.773C210.354 148.691 211.182 146.696 212.654 145.224C214.126 143.752 216.121 142.924 218.203 142.922H296.014C298.095 142.924 300.091 143.752 301.562 145.224C303.034 146.696 303.862 148.691 303.865 150.773V236.599C303.862 238.68 303.034 240.676 301.562 242.148C300.091 243.62 298.095 244.447 296.014 244.45ZM218.203 147.204C217.256 147.205 216.349 147.581 215.68 148.25C215.011 148.919 214.635 149.827 214.634 150.773V236.599C214.632 236.745 214.642 236.892 214.661 237.038C214.77 237.9 215.19 238.694 215.842 239.27C216.494 239.846 217.333 240.165 218.203 240.167H296.014C296.96 240.166 297.867 239.79 298.536 239.121C299.205 238.452 299.581 237.545 299.582 236.599V150.773C299.581 149.827 299.205 148.919 298.536 148.25C297.867 147.581 296.96 147.205 296.014 147.204H218.203Z" fill="#E6E6E6"/>
<path d="M255.978 158.612C250.913 156.256 244.694 155.483 239.54 157.673C234.386 159.863 230.872 165.475 232.538 170.442C233.294 172.694 235.015 174.909 234.345 177.183C233.828 178.934 232.028 180.09 230.26 180.912C228.492 181.734 226.558 182.425 225.279 183.811C224.001 185.197 223.734 187.583 225.331 188.658C225.858 189.012 226.515 189.18 227.026 189.553C227.461 189.907 227.774 190.387 227.923 190.927C228.072 191.467 228.049 192.04 227.857 192.567C227.431 193.626 226.729 194.55 225.822 195.244C224.009 196.807 221.612 198.597 222.175 200.817C222.384 201.41 222.733 201.944 223.193 202.374C223.652 202.804 224.208 203.116 224.814 203.285C226.072 203.648 227.378 203.82 228.687 203.796L282.193 205.482C283.959 205.614 285.735 205.515 287.476 205.187C288.322 205.032 289.127 204.705 289.841 204.226C290.555 203.746 291.162 203.124 291.625 202.399C292.649 200.503 291.977 198.167 290.711 196.396C289.446 194.625 287.655 193.228 286.175 191.601C284.696 189.975 283.485 187.945 283.746 185.843C283.955 184.161 285.064 182.707 285.861 181.178C286.657 179.649 287.12 177.739 286.088 176.333C284.635 174.351 281.144 174.53 279.491 172.683C278.244 171.29 278.485 169.284 278.361 167.487C278.062 163.164 275.07 159.081 270.809 157.186C268.643 156.256 266.287 155.854 263.934 156.014C261.582 156.175 259.302 156.892 257.282 158.107L255.978 158.612Z" fill="#2F2E41"/>
<path d="M257.958 205.067C267.639 205.067 275.488 197.219 275.488 187.537C275.488 177.855 267.639 170.007 257.958 170.007C248.276 170.007 240.428 177.855 240.428 187.537C240.428 197.219 248.276 205.067 257.958 205.067Z" fill="#A0616A"/>
<path d="M280.973 227.706C280.956 224.633 280.105 221.623 278.511 218.996C276.917 216.369 274.64 214.223 271.923 212.789C271.702 212.667 271.473 212.56 271.245 212.453C269.272 211.518 267.137 210.975 264.957 210.854L248.27 209.919C245.913 209.785 243.555 210.147 241.347 210.983C240.809 211.183 240.283 211.412 239.769 211.668C238.157 212.463 236.682 213.511 235.401 214.773C233.715 216.438 232.395 218.437 231.528 220.642C230.66 222.847 230.263 225.21 230.362 227.577L230.662 234.65L232.761 240.096H279.417C279.996 239.395 280.498 238.634 280.916 237.826C281.707 236.259 282.124 234.529 282.134 232.773C282.144 231.017 281.746 229.282 280.973 227.706Z" fill="#3F3D56"/>
<path d="M279.831 218.327C279.07 216.675 277.876 215.26 276.377 214.23C275.295 213.489 274.081 212.961 272.801 212.674C272.288 212.562 271.768 212.488 271.245 212.453C270.214 212.383 269.179 212.472 268.176 212.717C266.678 213.09 265.284 213.798 264.1 214.789C262.915 215.779 261.972 217.026 261.34 218.434C260.708 219.843 260.405 221.377 260.453 222.92C260.501 224.463 260.899 225.975 261.617 227.342L268.033 239.489L268.354 240.096H289.902L279.831 218.327Z" fill="#3F3D56"/>
<path d="M244.566 211.996C243.556 211.483 242.468 211.14 241.347 210.983C240.512 210.864 239.665 210.852 238.828 210.947C236.695 211.189 234.694 212.098 233.109 213.545C231.525 214.992 230.439 216.903 230.006 219.005L225.659 240.096H242.66L245.836 238.797L249.79 223.623C250.365 221.38 250.162 219.008 249.213 216.896C248.263 214.783 246.625 213.056 244.566 211.996Z" fill="#3F3D56"/>
<path d="M240.024 185.045C245.56 184.6 250.157 179.07 249.581 173.546C249.516 175.823 250.29 178.044 251.757 179.787C253.223 181.53 255.278 182.674 257.533 183C260.072 183.28 262.856 182.511 265.066 183.793C267.514 185.211 268.298 188.657 270.848 189.883C273.312 191.067 276.442 189.452 277.66 187.004C278.877 184.556 278.578 181.615 277.772 179.003C276.621 175.278 274.526 171.914 271.69 169.238C268.854 166.563 265.374 164.666 261.588 163.734C257.803 162.802 253.84 162.865 250.086 163.918C246.332 164.971 242.914 166.977 240.165 169.742C237.838 172.084 235.989 175.068 235.69 178.356C235.39 181.644 236.915 185.211 239.868 186.688L240.024 185.045Z" fill="#2F2E41"/>
<path d="M424.938 216.543H330.726C329.212 216.543 327.759 215.941 326.689 214.871C325.618 213.8 325.016 212.347 325.016 210.833C325.016 209.319 325.618 207.867 326.689 206.796C327.759 205.725 329.212 205.123 330.726 205.123H424.938C426.453 205.123 427.905 205.725 428.976 206.796C430.047 207.867 430.648 209.319 430.648 210.833C430.648 212.347 430.047 213.8 428.976 214.871C427.905 215.941 426.453 216.543 424.938 216.543Z" fill="#E6E6E6"/>
<path d="M382.115 192.276H330.726C329.212 192.276 327.759 191.675 326.689 190.604C325.618 189.533 325.016 188.081 325.016 186.566C325.016 185.052 325.618 183.6 326.689 182.529C327.759 181.458 329.212 180.856 330.726 180.856H382.115C383.629 180.856 385.081 181.458 386.152 182.529C387.223 183.6 387.825 185.052 387.825 186.566C387.825 188.081 387.223 189.533 386.152 190.604C385.081 191.675 383.629 192.276 382.115 192.276Z" fill="#FF5693"/>
<path d="M409.688 233.975C404.701 233.984 399.921 235.972 396.398 239.502C392.875 243.031 390.896 247.815 390.896 252.802C390.896 257.789 392.875 262.572 396.398 266.102C399.921 269.632 404.701 271.619 409.688 271.629H409.688C414.675 271.619 419.455 269.632 422.978 266.102C426.501 262.572 428.48 257.789 428.48 252.802C428.48 247.815 426.501 243.031 422.978 239.502C419.455 235.972 414.675 233.984 409.688 233.975Z" fill="#FF5693"/>
<path d="M407.902 260.621C407.406 260.622 406.924 260.461 406.527 260.164L406.503 260.145L401.325 256.185C400.842 255.813 400.526 255.265 400.446 254.661C400.367 254.056 400.531 253.445 400.902 252.961C401.273 252.477 401.82 252.16 402.425 252.08C403.029 252 403.641 252.163 404.125 252.533L407.478 255.105L415.403 244.766C415.587 244.527 415.816 244.325 416.077 244.174C416.339 244.023 416.628 243.925 416.927 243.886C417.226 243.846 417.531 243.866 417.822 243.944C418.114 244.022 418.388 244.157 418.627 244.34L418.628 244.341L418.579 244.409L418.629 244.341C419.113 244.713 419.429 245.261 419.509 245.865C419.589 246.47 419.425 247.082 419.055 247.566L409.734 259.721C409.518 260.001 409.241 260.227 408.924 260.383C408.606 260.539 408.257 260.619 407.904 260.618L407.902 260.621Z" fill="white"/>
</g>
<defs>
<clipPath id="clip0">
<rect width="641" height="284.594" fill="white"/>
</clipPath>
</defs>
</svg>
