<svg width="620" height="344" viewBox="0 0 620 344" fill="none" xmlns="http://www.w3.org/2000/svg">
<path d="M572.463 274.921C571.773 276.41 571.084 277.88 570.397 279.329C569.326 281.581 568.268 283.789 567.224 285.953C566.759 286.912 566.295 287.853 565.842 288.794C560.722 299.26 555.941 308.517 551.88 316.129C548.198 323.03 542.728 328.813 536.044 332.872C529.36 336.931 521.707 339.116 513.888 339.199L423.596 340.182H422.643L414.903 340.265L408.282 340.337L387.997 340.569H387.175L376.839 340.682H376.524L312.816 341.373L255.95 341.969L249.335 342.04L208.252 342.487H208.187L181.543 342.773H181.257L97.0082 343.684L71.805 343.958C69.659 343.983 67.5135 343.875 65.3806 343.637C64.6542 343.553 63.9278 343.458 63.2074 343.345C51.4531 341.53 40.6752 335.74 32.6694 326.94C21.8272 314.956 13.9382 301.077 8.63917 285.953C7.87309 283.773 7.15861 281.565 6.49574 279.329C-11.8485 217.267 10.5147 137.234 50.7636 83.6903C52.4506 81.4506 54.1653 79.2665 55.9078 77.138L55.9495 77.0904C68.3278 61.8891 82.2066 49.1896 96.9903 40.1594C123.188 24.1302 152.213 19.6151 180.763 33.0711C204.918 44.4601 227.472 49.8151 249.335 51.2685C251.544 51.4115 253.753 51.5187 255.95 51.5842C306.1 53.1627 353.101 35.0844 408.294 23.4154C410.491 22.9508 412.694 22.4921 414.915 22.0573C454.289 14.2184 497.967 10.0845 549.91 18.7752C555.306 19.6572 560.631 20.9313 565.842 22.5874C568.133 23.3261 570.34 24.1203 572.463 24.9701C597.256 35.0606 610.777 53.7048 616.523 77.0666C617.067 79.2348 617.537 81.4407 617.934 83.6843C628.121 139.879 598.286 219.59 572.463 274.921Z" fill="#F2F2F2"/>
<path opacity="0.1" d="M295.925 279.329C295.685 281.557 295.313 283.769 294.811 285.953H350.6V279.329H295.925ZM249.335 316.743L255.95 316.689V300.326C253.681 300.225 251.472 300.124 249.335 300.016V316.743ZM110.655 279.329V285.953H228.841V279.329H110.655ZM616.553 77.0725H572.493V24.976C570.37 24.1103 568.163 23.3161 565.872 22.5934V77.0963H414.915V22.0394C412.694 22.4743 410.491 22.9329 408.294 23.3975V77.0725H255.95V51.5663C253.753 51.5008 251.544 51.3936 249.335 51.2506V77.0725H96.9904V40.1416C82.2066 49.1718 68.3279 61.8713 55.9496 77.0725H55.9079V77.1202C54.1614 79.2646 52.4467 81.4486 50.7637 83.6724H55.9079V279.329H6.48987C7.14878 281.565 7.86325 283.773 8.6333 285.953H55.902V341.719C58.2802 342.446 60.7078 343.002 63.1658 343.38C63.8862 343.494 64.6126 343.589 65.339 343.672C67.4719 343.911 69.6174 344.019 71.7634 343.994L96.9666 343.72V285.941H249.335V342.058L255.95 341.987V285.953H408.294V340.343L414.915 340.271V285.953H565.843V288.794C566.295 287.853 566.76 286.912 567.224 285.953C568.268 283.793 569.326 281.585 570.397 279.329C571.084 277.88 571.773 276.41 572.463 274.921V83.7141H617.964C617.563 81.4546 617.092 79.2407 616.553 77.0725ZM96.9904 279.329V83.6903H249.335V279.329H96.9904ZM255.962 279.329V83.6903H408.294V279.329H255.962ZM565.854 279.329H414.915V83.6903H565.843L565.854 279.329Z" fill="black"/>
<path d="M496.997 210.316C488.747 195.074 477.055 181.969 462.851 172.045C461.835 171.344 460.664 170.902 459.439 170.758C461.112 159.75 460.761 147.587 454.551 138.414C439.815 116.648 364.735 139.111 364.735 139.111C312.108 120.86 266.494 144.025 266.494 144.025C266.494 144.025 208.252 134.899 181.591 141.922C169.016 145.234 165.961 158.065 166.247 170.704H166.205C165.091 170.702 163.99 170.952 162.985 171.435C161.979 171.917 161.096 172.621 160.4 173.492C153.309 182.356 131.887 209.655 132.47 214.926C133.173 221.246 156.328 303.376 155.28 343.041L478.754 339.467C478.754 339.467 484.112 259.648 497.515 215.957C498.096 214.082 497.909 212.053 496.997 210.316Z" fill="#3F3D56"/>
<path opacity="0.1" d="M159.495 215.284L172.826 188.604L184.049 240.552L184.18 264.664L159.495 215.284Z" fill="black"/>
<path opacity="0.1" d="M465.423 215.284L452.092 188.604L436.629 237.859L439.606 265.855L465.423 215.284Z" fill="black"/>
<path d="M183.073 239.134L436.653 237.746L439.463 265.825L184.049 265.123L183.073 239.134Z" fill="#3F3D56"/>
<path opacity="0.1" d="M183.073 239.134L436.653 237.746L439.463 265.825L184.049 265.123L183.073 239.134Z" fill="black"/>
<path opacity="0.1" d="M434.563 263.091H189.224C185.781 263.091 182.99 265.884 182.99 269.328V287.043C182.99 290.487 185.781 293.28 189.224 293.28H434.563C438.006 293.28 440.797 290.487 440.797 287.043V269.328C440.797 265.884 438.006 263.091 434.563 263.091Z" fill="white"/>
<path d="M388.039 162.103C388.039 162.103 387.181 160.912 386.169 161.555C385.687 161.871 383.419 164.73 381.192 167.637C380.096 169.06 379.007 170.496 378.143 171.64C377.078 173.045 376.357 174.022 376.357 174.022L375.928 174.826L373.327 179.693L370.879 184.268L370.284 186.424L378.548 189.235L387.955 186.668L387.551 184.923L387.479 184.625L387.557 180.61L387.771 169.293L387.872 164.2V163.604L388.039 162.103Z" fill="#FFE09C"/>
<path d="M369.117 190.004C369.117 190.004 378.048 193.191 382.627 191.523C382.627 191.523 386.586 190.26 388.146 189.039C388.146 189.039 389.807 188.169 387.551 185.334C387.551 185.334 381.769 188.878 376.298 187.484L370.826 186.084L369.117 190.004Z" fill="#E7C4C3"/>
<path d="M379.079 185.972C380.472 185.155 381.04 183.536 380.349 182.355C379.657 181.174 377.967 180.879 376.574 181.696C375.181 182.513 374.613 184.132 375.304 185.312C375.996 186.493 377.686 186.788 379.079 185.972Z" fill="#FF7F8E"/>
<path d="M385.018 178.848C386.411 178.031 386.98 176.412 386.288 175.231C385.596 174.051 383.906 173.755 382.513 174.572C381.12 175.389 380.552 177.008 381.243 178.189C381.935 179.369 383.625 179.665 385.018 178.848Z" fill="#FF7F8E"/>
<path d="M387.551 180.61C387.102 180.423 386.615 180.345 386.131 180.384C385.646 180.422 385.178 180.575 384.764 180.831C383.371 181.647 382.799 183.267 383.496 184.446C384.193 185.626 385.878 185.924 387.265 185.108C387.36 185.048 387.455 184.988 387.545 184.923L387.473 184.625L387.551 180.61Z" fill="#FF7F8E"/>
<path d="M377.447 175.887C377.281 175.613 377.06 175.377 376.797 175.194C376.535 175.012 376.237 174.886 375.922 174.826L373.321 179.693C373.776 179.898 374.275 179.988 374.773 179.955C375.272 179.922 375.754 179.766 376.178 179.502C377.572 178.686 378.137 177.066 377.447 175.887Z" fill="#FF7F8E"/>
<path d="M383.234 168.757C383.019 168.412 382.72 168.129 382.364 167.933C382.009 167.737 381.609 167.635 381.204 167.637C380.108 169.06 379.019 170.496 378.155 171.64L378.191 171.711C378.882 172.902 380.573 173.182 381.966 172.366C383.359 171.55 383.913 169.936 383.234 168.757Z" fill="#FF7F8E"/>
<path d="M387.866 164.194C387.559 164.271 387.264 164.391 386.991 164.551C385.598 165.367 385.032 166.988 385.723 168.167C385.939 168.513 386.24 168.798 386.598 168.994C386.955 169.19 387.357 169.291 387.765 169.287L387.866 164.194Z" fill="#FF7F8E"/>
<path d="M373.999 183.726L373.523 182.921C374.236 182.708 374.895 182.342 375.452 181.849C375.488 181.813 375.518 181.772 375.547 181.736C376.143 180.986 376.018 182.546 376.018 182.546C376.018 182.546 374.553 183.791 373.999 183.726Z" fill="#94CC79"/>
<path d="M381.025 182.481L380.549 181.671C381.261 181.456 381.919 181.091 382.478 180.598C382.478 180.563 382.543 180.527 382.573 180.485C383.168 179.741 383.043 181.295 383.043 181.295C383.043 181.295 381.579 182.546 381.025 182.481Z" fill="#94CC79"/>
<path d="M380.382 179.145L379.906 178.335C380.618 178.122 381.276 177.759 381.835 177.269C381.865 177.227 381.9 177.191 381.93 177.155C382.526 176.405 382.4 177.96 382.4 177.96C382.4 177.96 380.936 179.199 380.382 179.145Z" fill="#94CC79"/>
<path d="M381.233 173.129L380.757 172.319C381.47 172.104 382.128 171.739 382.686 171.247C382.686 171.211 382.752 171.175 382.781 171.133C383.377 170.383 383.252 171.943 383.252 171.943C383.252 171.943 381.787 173.188 381.233 173.129Z" fill="#94CC79"/>
<path d="M385.264 165.85L384.794 165.04C385.505 164.826 386.161 164.46 386.717 163.968C386.752 163.933 386.784 163.895 386.812 163.854C387.408 163.11 387.289 164.664 387.289 164.664C387.289 164.664 385.818 165.909 385.264 165.85Z" fill="#94CC79"/>
<path d="M384.812 173.278L384.335 172.468C385.048 172.257 385.707 171.893 386.265 171.401C386.265 171.36 386.33 171.324 386.36 171.288C386.955 170.538 386.83 172.092 386.83 172.092C386.83 172.092 385.366 173.343 384.812 173.278Z" fill="#94CC79"/>
<path d="M367.652 187.484C367.652 187.484 366.509 190.462 369.117 189.986C370.278 188.64 371.071 187.017 371.421 185.274C371.421 185.274 377.06 172.914 378.727 171.783C378.727 171.783 386.074 161.734 386.866 161.585C386.866 161.585 387.122 160.608 384.556 162.675C381.99 164.742 376.369 172.7 376.369 172.7L371.01 181.438L369.748 184.923L367.652 187.484Z" fill="#E7C4C3"/>
<path opacity="0.2" d="M367.652 187.484C367.652 187.484 366.509 190.462 369.117 189.986C370.278 188.64 371.071 187.017 371.421 185.274C371.421 185.274 377.06 172.914 378.727 171.783C378.727 171.783 386.074 161.734 386.866 161.585C386.866 161.585 387.122 160.608 384.556 162.675C381.99 164.742 376.369 172.7 376.369 172.7L371.01 181.438L369.748 184.923L367.652 187.484Z" fill="white"/>
<path d="M279.087 247.985C280.07 251.216 281.279 254.373 282.707 257.433C286.807 256.575 290.84 255.424 294.776 253.99C294.901 253.948 292.519 250.833 292.269 250.577C291.299 249.504 290.143 248.616 288.857 247.956C287.601 247.408 286.053 247.825 284.69 247.896C282.832 247.991 280.964 248.021 279.087 247.985Z" fill="#FBBEBE"/>
<path d="M288.881 252.876C286.833 252.233 285.583 250.166 284.749 248.176C283.916 246.187 283.243 244.006 281.659 242.553C281.358 242.599 281.074 242.719 280.83 242.902C280.587 243.085 280.393 243.325 280.266 243.601C280.019 244.16 279.742 244.704 279.438 245.234C278.783 246.187 277.652 246.651 276.789 247.461C275.925 248.271 275.443 249.504 274.544 250.32C273.413 251.345 271.817 251.601 270.335 251.941C268.038 252.462 265.82 253.283 263.738 254.383C262.971 254.846 262.151 255.214 261.296 255.479C260.355 255.663 259.39 255.695 258.439 255.574L251.889 255.11C251.306 255.035 250.714 255.059 250.139 255.181C249.476 255.423 248.913 255.877 248.536 256.473C248.159 257.069 247.99 257.773 248.055 258.475C248.139 259.175 248.366 259.85 248.723 260.457C249.079 261.065 249.557 261.593 250.127 262.007C251.271 262.821 252.532 263.458 253.866 263.896C259.579 266.056 265.462 267.738 271.454 268.923V270.221C275.619 272.276 280.201 273.343 284.844 273.343C285.187 273.367 285.53 273.308 285.845 273.17C286.274 272.859 286.575 272.401 286.69 271.883C288.267 267.27 289.187 262.457 289.423 257.588C289.54 256.355 289.445 255.112 289.143 253.912C288.786 252.721 290.013 253.227 288.875 252.763" fill="#2F2E41"/>
<path d="M414.701 228.132C395.249 229.323 376 223.599 356.554 222.992C354.133 222.839 351.702 222.995 349.32 223.456C346.819 224.016 344.486 225.148 342.175 226.232C331.726 231.092 320.926 235.119 310.131 239.14L297.735 243.762C295.258 244.685 292.692 245.621 290.054 245.46C288.863 245.388 287.417 245.21 286.756 246.193C284.737 249.171 285.69 253.573 287.024 256.914C287.452 257.998 288.214 259.178 289.346 259.297C290.161 259.38 290.924 258.91 291.727 258.701C293.984 258.106 296.234 259.619 298.557 259.863C301.426 260.167 304.088 258.535 306.797 257.534C311.286 255.872 316.198 255.926 320.92 255.151C328.838 253.829 336.174 250.154 343.033 245.966C345.641 244.37 348.284 242.66 351.285 242.077C354.732 241.403 358.275 242.291 361.663 243.268C369.726 245.549 377.664 248.253 385.443 251.369C389.539 253.013 393.612 254.77 397.875 255.908C407.097 258.334 416.85 257.764 425.728 254.282C428.836 253.049 432.223 250.874 432.402 247.515C432.503 245.597 431.015 243.941 430.02 242.273C429.389 241.219 428.752 240.17 428.056 239.158C424.68 234.238 420.607 227.781 414.701 228.132Z" fill="#2F2E41"/>
<path opacity="0.1" d="M414.701 228.132C395.249 229.323 376 223.599 356.554 222.992C354.133 222.839 351.702 222.995 349.32 223.456C346.819 224.016 344.486 225.148 342.175 226.232C331.726 231.092 320.926 235.119 310.131 239.14L297.735 243.762C295.258 244.685 292.692 245.621 290.054 245.46C288.863 245.388 287.417 245.21 286.756 246.193C284.737 249.171 285.69 253.573 287.024 256.914C287.452 257.998 288.214 259.178 289.346 259.297C290.161 259.38 290.924 258.91 291.727 258.701C293.984 258.106 296.234 259.619 298.557 259.863C301.426 260.167 304.088 258.535 306.797 257.534C311.286 255.872 316.198 255.926 320.92 255.151C328.838 253.829 336.174 250.154 343.033 245.966C345.641 244.37 348.284 242.66 351.285 242.077C354.732 241.403 358.275 242.291 361.663 243.268C369.726 245.549 377.664 248.253 385.443 251.369C389.539 253.013 393.612 254.77 397.875 255.908C407.097 258.334 416.85 257.764 425.728 254.282C428.836 253.049 432.223 250.874 432.402 247.515C432.503 245.597 431.015 243.941 430.02 242.273C429.389 241.219 428.752 240.17 428.056 239.158C424.68 234.238 420.607 227.781 414.701 228.132Z" fill="black"/>
<path d="M316.43 248.933C319.471 249.969 322.543 250.924 325.647 251.798C327.38 248.95 330.625 246.967 331.363 243.715C331.394 243.643 331.409 243.565 331.408 243.487C331.407 243.408 331.389 243.331 331.356 243.26C331.323 243.189 331.275 243.126 331.216 243.075C331.156 243.024 331.087 242.986 331.012 242.964C328.794 241.735 326.331 241.013 323.801 240.849C321.801 240.724 320.89 242.809 319.979 244.28C319.616 244.87 317.246 249.213 316.43 248.933Z" fill="#FBBEBE"/>
<path d="M320.717 246.854C319.808 246.7 318.941 246.359 318.17 245.852C317.399 245.346 316.742 244.685 316.24 243.911C315.811 243.161 315.353 242.124 314.495 242.202C313.638 242.279 313.304 243.208 313.15 243.989C312.572 246.942 311.733 249.839 310.643 252.643C309.548 255.454 307.693 257.905 305.284 259.72C304.153 260.5 302.903 261.09 301.795 261.912C300.801 262.645 299.938 263.574 298.818 264.14C298.087 264.479 297.33 264.761 296.556 264.986C295.42 265.387 294.333 265.916 293.317 266.564C292.425 267.08 291.669 267.804 291.114 268.673C290.833 269.113 290.669 269.617 290.637 270.138C290.605 270.659 290.705 271.18 290.929 271.651C291.165 272.036 291.479 272.367 291.852 272.621C292.224 272.876 292.646 273.049 293.091 273.128C293.977 273.283 294.882 273.307 295.776 273.2C299.319 272.938 302.861 272.604 306.404 272.306C307.901 272.215 309.389 272.016 310.857 271.711C311.637 271.52 312.393 271.276 313.167 271.073C314.492 270.733 315.849 270.533 317.216 270.478C317.616 270.446 318.019 270.482 318.407 270.585C319.229 270.853 319.806 271.669 320.658 271.836C321.201 271.887 321.749 271.814 322.259 271.621C324.808 270.924 327.493 270.942 330.13 270.799C331.321 270.74 332.655 270.519 333.191 269.477C333.858 268.178 332.75 266.725 332.315 265.307C332.094 264.416 331.97 263.503 331.946 262.585C331.746 260.319 331.081 258.119 329.993 256.122C329.094 254.466 327.862 252.632 328.493 250.851C328.707 250.255 329.136 249.659 329.088 249.064C328.886 246.21 322.331 247.193 320.717 246.854Z" fill="#2F2E41"/>
<path d="M385.532 196.914C382.089 195.392 379.332 192.648 377.792 189.212C377.465 188.473 377.197 187.705 376.887 186.96C375.866 184.482 374.28 182.277 372.255 180.521C372.037 180.283 371.771 180.095 371.474 179.969C371.177 179.844 370.856 179.784 370.534 179.794C370.223 179.889 369.942 180.065 369.72 180.303C369.499 180.542 369.344 180.835 369.272 181.152C369.094 181.83 369.049 182.536 369.141 183.231C369.315 184.868 369.597 186.492 369.986 188.092L370.927 192.387C371.043 193.049 371.243 193.693 371.522 194.305C371.926 195.028 372.461 195.671 373.1 196.199C373.964 196.997 374.839 197.765 375.726 198.516C376.963 199.7 378.573 200.416 380.281 200.541C384.139 201.256 388.069 202.292 391.331 204.812C391.29 204.812 391.331 201.929 391.26 201.601C391.111 200.738 390.992 199.88 390.432 199.296C389.152 197.986 387.074 197.61 385.532 196.914Z" fill="#FBBEBE"/>
<path opacity="0.1" d="M385.532 196.914C382.089 195.392 379.332 192.648 377.792 189.212C377.465 188.473 377.197 187.705 376.887 186.96C375.866 184.482 374.28 182.277 372.255 180.521C372.037 180.283 371.771 180.095 371.474 179.969C371.177 179.844 370.856 179.784 370.534 179.794C370.223 179.889 369.942 180.065 369.72 180.303C369.499 180.542 369.344 180.835 369.272 181.152C369.094 181.83 369.049 182.536 369.141 183.231C369.315 184.868 369.597 186.492 369.986 188.092L370.927 192.387C371.043 193.049 371.243 193.693 371.522 194.305C371.926 195.028 372.461 195.671 373.1 196.199C373.964 196.997 374.839 197.765 375.726 198.516C376.963 199.7 378.573 200.416 380.281 200.541C384.139 201.256 388.069 202.292 391.331 204.812C391.29 204.812 391.331 201.929 391.26 201.601C391.111 200.738 390.992 199.88 390.432 199.296C389.152 197.986 387.074 197.61 385.532 196.914Z" fill="black"/>
<path d="M425.144 164.027C427.758 164.027 429.878 161.896 429.878 159.268C429.878 156.639 427.758 154.508 425.144 154.508C422.53 154.508 420.411 156.639 420.411 159.268C420.411 161.896 422.53 164.027 425.144 164.027Z" fill="#2F2E41"/>
<path d="M422.215 156.391C420.935 156.248 419.506 156.147 418.476 156.933C417.929 157.414 417.492 158.007 417.195 158.672C416.136 160.493 415.31 162.441 414.736 164.468C414.314 166.207 414.242 168.042 413.718 169.734C412.748 172.902 410.265 175.577 409.979 178.883C409.854 180.36 410.104 182.093 409.021 183.106C408.756 183.328 408.474 183.528 408.175 183.702C407.427 184.203 406.792 184.857 406.312 185.62C405.986 186.305 405.538 186.925 404.99 187.448C404.025 188.163 402.43 188.086 401.953 189.194C401.477 190.302 402.703 191.576 402.418 192.768C402.185 193.745 401.096 194.191 400.346 194.859C399.381 195.71 398.941 196.991 398.56 198.218C396.978 198.517 395.35 198.47 393.787 198.081C392.225 197.691 390.766 196.968 389.509 195.96C390.825 199.213 390.855 202.805 390.915 206.319C390.915 207.457 390.915 208.737 390.081 209.53C393.85 209.613 397.524 210.632 401.197 211.466C402.805 211.829 404.549 212.145 406.044 211.466C406.887 211.011 407.64 210.406 408.265 209.679C410.265 207.647 412.361 205.437 412.849 202.62C413.123 201.047 412.849 199.427 412.932 197.855C413.116 195.879 413.516 193.93 414.123 192.041C415.183 188.125 415.894 184.122 416.249 180.08C416.463 177.59 418.63 175.583 419.75 173.349C421.893 169.144 424.078 164.76 424.239 160.036C424.316 158.476 423.781 156.563 422.215 156.391Z" fill="#2F2E41"/>
<path opacity="0.1" d="M422.215 156.391C420.935 156.248 419.506 156.147 418.476 156.933C417.929 157.414 417.492 158.007 417.195 158.672C416.136 160.493 415.31 162.441 414.736 164.468C414.314 166.207 414.242 168.042 413.718 169.734C412.748 172.902 410.265 175.577 409.979 178.883C409.854 180.36 410.104 182.093 409.021 183.106C408.756 183.328 408.474 183.528 408.175 183.702C407.427 184.203 406.792 184.857 406.312 185.62C405.986 186.305 405.538 186.925 404.99 187.448C404.025 188.163 402.43 188.086 401.953 189.194C401.477 190.302 402.703 191.576 402.418 192.768C402.185 193.745 401.096 194.191 400.346 194.859C399.381 195.71 398.941 196.991 398.56 198.218C396.978 198.517 395.35 198.47 393.787 198.081C392.225 197.691 390.766 196.968 389.509 195.96C390.825 199.213 390.855 202.805 390.915 206.319C390.915 207.457 390.915 208.737 390.081 209.53C393.85 209.613 397.524 210.632 401.197 211.466C402.805 211.829 404.549 212.145 406.044 211.466C406.887 211.011 407.64 210.406 408.265 209.679C410.265 207.647 412.361 205.437 412.849 202.62C413.123 201.047 412.849 199.427 412.932 197.855C413.116 195.879 413.516 193.93 414.123 192.041C415.183 188.125 415.894 184.122 416.249 180.08C416.463 177.59 418.63 175.583 419.75 173.349C421.893 169.144 424.078 164.76 424.239 160.036C424.316 158.476 423.781 156.563 422.215 156.391Z" fill="black"/>
<path d="M417.767 232.23C413.718 230.3 410.753 226.708 407.479 223.629C401.227 217.756 393.576 213.598 387.003 208.088C382.645 204.443 378.751 200.19 373.964 197.134C369.751 194.455 364.977 192.783 360.013 192.249C359.445 192.148 358.861 192.177 358.305 192.333C357.677 192.611 357.13 193.043 356.715 193.59C354.594 195.985 352.708 198.578 351.082 201.333C342.747 215.48 330.91 227.393 321.104 240.54C320.794 240.852 320.611 241.268 320.589 241.708C320.567 242.148 320.708 242.58 320.985 242.922L322.98 246.83C324.093 249.022 325.885 251.595 328.291 251.136C329.392 250.934 330.267 250.124 331.077 249.349L340.008 240.79L349.397 231.807C354.899 226.548 360.49 221.163 364.08 214.438C366.878 219.298 371.856 222.479 375.268 226.947C376.565 228.638 377.649 230.521 378.78 232.308C380.638 235.179 382.752 237.877 384.859 240.569L395.63 254.323C397.095 256.194 398.607 258.112 400.614 259.38C403.168 260.995 406.27 261.424 409.271 261.692C413.317 262.053 417.379 262.2 421.441 262.132C424.537 262.079 427.728 261.876 430.509 260.5C433.289 259.124 435.569 256.331 435.427 253.186C435.256 251.569 434.725 250.012 433.873 248.629C430.05 241.54 425.019 235.673 417.767 232.23Z" fill="#2F2E41"/>
<path d="M428.056 166.225C430.065 166.225 431.693 164.585 431.693 162.562C431.693 160.539 430.065 158.898 428.056 158.898C426.046 158.898 424.418 160.539 424.418 162.562C424.418 164.585 426.046 166.225 428.056 166.225Z" fill="#E8E8F0"/>
<path d="M427.252 159.81C428.07 161.44 428.213 163.328 427.651 165.064C427.088 166.776 426.301 168.406 425.311 169.912C424.459 171.467 423.439 172.923 422.268 174.255C427.883 174.529 433.331 172.325 438.285 169.65C442.274 167.506 446.251 164.849 448.406 160.834C447.773 160.988 447.114 161.006 446.473 160.888C445.832 160.77 445.222 160.518 444.685 160.149C443.616 159.402 442.658 158.508 441.839 157.493L439.017 154.318C438.355 153.628 437.773 152.864 437.284 152.042C436.673 150.918 436.413 149.635 436.54 148.361C435.42 149.535 434.167 150.575 432.807 151.459C430.794 152.769 428.574 153.722 426.555 155.033C425.841 155.491 424.245 156.224 424.656 157.171C425.067 158.118 426.698 158.809 427.252 159.81Z" fill="#FBBEBE"/>
<path opacity="0.1" d="M427.252 159.81C428.07 161.44 428.213 163.328 427.651 165.064C427.088 166.776 426.301 168.406 425.311 169.912C424.459 171.467 423.439 172.923 422.268 174.255C427.883 174.529 433.331 172.325 438.285 169.65C442.274 167.506 446.251 164.849 448.406 160.834C447.773 160.988 447.114 161.006 446.473 160.888C445.832 160.77 445.222 160.518 444.685 160.149C443.616 159.402 442.658 158.508 441.839 157.493L439.017 154.318C438.355 153.628 437.773 152.864 437.284 152.042C436.673 150.918 436.413 149.635 436.54 148.361C435.42 149.535 434.167 150.575 432.807 151.459C430.794 152.769 428.574 153.722 426.555 155.033C425.841 155.491 424.245 156.224 424.656 157.171C425.067 158.118 426.698 158.809 427.252 159.81Z" fill="black"/>
<path d="M427.329 160.364C426.275 162.151 426.049 164.236 427.329 165.856C427.49 166.058 428.079 167.309 428.335 167.321C428.583 167.296 428.813 167.179 428.978 166.993C430.342 165.749 431.36 164.158 432.551 162.746C433.742 161.335 435.26 160.054 437.082 159.768C439.279 159.429 441.404 160.59 443.328 161.716C444.164 162.124 444.894 162.722 445.459 163.461C445.864 164.195 446.104 165.008 446.162 165.844C446.823 170.853 446.811 175.928 446.793 180.98C446.793 184.637 446.793 188.312 446.078 191.898C445.721 193.757 445.185 195.573 444.929 197.444C444.745 199.095 444.672 200.756 444.709 202.417V209.375C444.661 210.651 444.75 211.93 444.977 213.187C445.304 214.712 446.025 216.118 446.507 217.601C447.005 219.305 447.346 221.052 447.525 222.819L448.478 230.02C448.775 232.29 448.996 234.786 447.626 236.573C447.031 237.395 446.191 238.056 445.566 238.878C443.185 241.94 443.965 246.318 442.982 250.064C442.209 252.807 440.618 255.249 438.421 257.063C436.736 258.493 434.563 259.613 432.402 259.214C429.479 258.672 427.722 255.64 426.924 252.739C426.126 249.838 425.841 246.723 424.114 244.292C422.703 242.303 420.542 241.052 418.541 239.634C416.541 238.217 414.635 236.388 414.207 233.981C414.016 232.933 414.135 231.855 414.022 230.795C413.866 229.451 413.352 228.174 412.533 227.097C411.713 226.021 410.62 225.185 409.366 224.677C407.872 224.082 406.026 223.885 405.198 222.515C407.377 221.288 408.818 219.018 409.58 216.63C410.342 214.241 410.497 211.704 410.646 209.202L411.146 200.833C411.367 197.092 411.468 193.387 413.117 190.028C413.849 188.521 414.766 187.115 415.534 185.632C416.547 183.545 417.413 181.389 418.124 179.181C419.315 175.75 420.506 172.319 421.578 168.846C422.004 167.168 422.64 165.551 423.471 164.033C424.316 162.58 425.638 160.679 427.329 160.364Z" fill="#FF5693"/>
<path d="M408.753 214.736L410.968 214.813L411.438 211.471C411.498 210.801 411.654 210.143 411.902 209.518C412.269 208.858 412.695 208.234 413.177 207.653C415.356 204.574 415.195 200.505 415.737 196.747C416.457 191.755 418.541 187.085 420.601 182.493L424.912 172.908C425.766 171.28 426.176 169.456 426.103 167.619C426.144 166.136 426.579 160.751 426.621 159.28C426.621 158.732 425.43 159.035 425.162 158.547C424.626 157.481 423.888 160.37 422.882 161.001C421.875 161.633 421.316 162.788 420.893 163.896C419.964 166.308 419.398 168.846 418.511 171.282C417.624 173.718 416.445 176.113 414.498 177.834C413.617 178.609 412.605 179.216 411.771 180.044C409.098 182.689 408.836 186.865 408.741 190.635C408.693 192.845 408.241 214.736 408.753 214.736Z" fill="#2F2E41"/>
<path d="M440.618 156.367C438.469 157.213 437.29 159.548 436.689 161.787C436.087 164.027 435.837 166.422 434.682 168.429C431.979 173.129 425.096 174.499 423.197 179.58C422.602 181.242 422.602 183.064 422.429 184.833C422.084 188.473 420.887 191.981 420.536 195.627C420.348 198.454 420.414 201.293 420.732 204.109L423.114 232.814C423.465 236.984 423.453 241.409 422.393 245.436C424.828 245.907 427.365 245.275 429.621 244.245C431.878 243.214 433.944 241.797 436.117 240.599C439.856 238.532 443.982 237.073 447.257 234.321C447.851 233.859 448.358 233.297 448.758 232.659C449.412 231.527 449.472 230.151 449.782 228.877C450.064 227.858 450.424 226.862 450.859 225.898C452.059 223.005 453.104 220.051 453.991 217.047C454.6 215.055 455.08 213.025 455.426 210.971C455.688 209.339 455.831 207.683 455.974 206.033C456.148 203.448 456.661 200.896 457.498 198.444C459.59 192.599 460.777 186.469 461.017 180.265C461.084 179.369 461.022 178.468 460.832 177.59C460.465 176.526 459.978 175.506 459.379 174.552C458.379 172.67 457.778 170.597 456.837 168.679C454.706 164.361 450.937 161.079 446.995 158.333C445.078 156.992 442.815 155.509 440.618 156.367Z" fill="#2F2E41"/>
<path d="M390.325 203.198C388.615 202.3 387.068 201.122 385.747 199.713C385.151 199.01 384.651 198.218 384.038 197.527C382.492 195.875 380.483 194.729 378.274 194.239C376.083 193.758 373.843 193.54 371.6 193.59C370.099 193.494 368.593 193.676 367.158 194.126C366.44 194.361 365.794 194.774 365.279 195.327C364.765 195.881 364.399 196.556 364.217 197.289C363.89 199.076 365.056 200.809 366.456 201.959C367.759 203.022 369.292 203.767 370.933 204.133C372.271 204.364 373.621 204.522 374.976 204.603C382.942 205.437 390.051 209.774 397.006 213.723C403.138 217.198 409.388 220.442 415.755 223.456C416.006 221.547 416.111 219.621 416.07 217.696C416.034 216.261 415.963 214.069 414.605 213.223C413.028 212.24 410.438 212.031 408.652 211.436C404.548 210.09 400.54 208.468 396.654 206.581C394.507 205.529 392.397 204.401 390.325 203.198Z" fill="#FBBEBE"/>
<path d="M439.245 147.839C441.249 140.212 436.727 132.413 429.146 130.419C421.564 128.425 413.793 132.991 411.789 140.617C409.785 148.244 414.307 156.043 421.888 158.037C429.47 160.031 437.241 155.465 439.245 147.839Z" fill="#FBBEBE"/>
<path d="M444.679 172.557C443.411 174.034 442.774 175.94 441.922 177.692C440.172 181.301 437.421 184.399 436.046 188.175C434.593 192.154 434.641 196.884 431.795 200.011C431.301 200.553 430.705 201.077 430.562 201.798C430.543 202.236 430.493 202.672 430.413 203.102C430.008 204.234 428.151 204.294 427.806 205.449C427.704 205.789 427.758 206.158 427.633 206.492C427.347 207.236 426.365 207.349 425.704 207.802C424.322 208.737 424.602 210.906 423.62 212.258C423.189 212.764 422.63 213.145 422.002 213.363C421.374 213.581 420.699 213.627 420.047 213.497C418.757 213.232 417.516 212.768 416.368 212.121C415.96 211.894 415.51 211.754 415.046 211.71C414.496 211.727 413.964 211.908 413.516 212.228C410.896 213.896 409.664 217.202 409.682 220.323C409.699 223.444 410.771 226.446 411.867 229.365C412.018 229.857 412.265 230.315 412.593 230.711C413.462 231.629 414.975 231.486 416.13 230.973C417.285 230.461 418.333 229.657 419.571 229.431C421.768 229.032 423.918 230.545 426.121 230.419C427.752 230.324 429.199 229.377 430.55 228.46C432.718 226.994 434.921 225.481 436.504 223.409C437.481 222.134 438.195 220.686 439.047 219.322C440.136 217.66 441.329 216.069 442.619 214.557L450.8 204.538C451.621 203.589 452.358 202.571 453.003 201.494C453.747 200.04 454.323 198.505 454.718 196.919C455.497 194.245 456.283 191.559 456.414 188.765C456.46 186.473 456.26 184.182 455.819 181.933C455.537 179.69 454.935 177.5 454.033 175.428C452.348 171.711 448.019 168.655 444.679 172.557Z" fill="#2F2E41"/>
<path d="M469.424 166.183C470.079 163.738 470.144 161.173 469.614 158.698C469.084 156.223 467.974 153.909 466.375 151.947C468.549 142.673 463.815 133.386 455.48 129.949C455.777 121.253 450.27 113.271 441.785 111.031C432.968 108.714 423.923 113.372 420.119 121.652C414.76 118.87 409.092 119.168 407.223 122.438C405.27 125.857 408.205 131.236 413.772 134.447C415.527 135.472 417.447 136.184 419.446 136.549C420.305 138.979 421.662 141.202 423.431 143.075C425.2 144.948 427.341 146.43 429.717 147.426C429.57 150.942 430.406 154.43 432.131 157.497C433.856 160.564 436.401 163.089 439.481 164.79C439.818 167.234 440.721 169.565 442.119 171.598C441.955 172.024 441.816 172.46 441.702 172.902C439.952 179.544 443.738 186.299 450.151 187.985C456.563 189.67 463.184 185.656 464.929 179.014C465.397 177.243 465.479 175.392 465.167 173.587C467.224 171.547 468.695 168.989 469.424 166.183Z" fill="#3F3D56"/>
<path opacity="0.1" d="M410.896 124.165C412.766 120.895 418.428 120.592 423.793 123.379C427.585 115.1 436.641 110.436 445.459 112.759C445.858 112.86 446.251 112.985 446.65 113.116C445.142 112.185 443.505 111.483 441.791 111.031C432.974 108.714 423.929 113.372 420.125 121.652C414.766 118.87 409.098 119.168 407.229 122.438C405.276 125.857 408.211 131.236 413.778 134.447C414.823 135.048 415.923 135.547 417.065 135.936C411.742 132.683 408.991 127.501 410.896 124.165Z" fill="black"/>
<path opacity="0.1" d="M445.382 174.63C445.495 174.187 445.635 173.752 445.798 173.325C444.401 171.291 443.497 168.957 443.161 166.511C440.081 164.812 437.535 162.288 435.81 159.222C434.085 156.156 433.249 152.669 433.396 149.153C431.021 148.158 428.879 146.676 427.11 144.802C425.342 142.929 423.984 140.706 423.126 138.277C421.96 138.069 420.82 137.735 419.726 137.282C420.635 139.548 421.986 141.611 423.701 143.349C425.415 145.088 427.458 146.468 429.711 147.408C429.564 150.924 430.4 154.412 432.125 157.479C433.85 160.546 436.395 163.072 439.475 164.772C439.812 167.216 440.715 169.547 442.113 171.58C441.949 172.007 441.81 172.442 441.696 172.885C439.952 179.502 443.709 186.233 450.085 187.949C448.041 186.47 446.496 184.404 445.655 182.024C444.815 179.644 444.719 177.065 445.382 174.63Z" fill="black"/>
<path d="M431.639 149.142C432.6 148.412 432.587 146.777 431.611 145.491C430.634 144.204 429.063 143.754 428.102 144.484C427.141 145.214 427.154 146.849 428.131 148.135C429.107 149.422 430.678 149.872 431.639 149.142Z" fill="#FBBEBE"/>
<path d="M257.093 23.4333C262.45 23.4333 266.792 19.089 266.792 13.73C266.792 8.37099 262.45 4.02667 257.093 4.02667C251.736 4.02667 247.394 8.37099 247.394 13.73C247.394 19.089 251.736 23.4333 257.093 23.4333Z" fill="#3F3D56"/>
<path d="M278.14 70.5262C293.164 70.5262 305.344 54.7384 305.344 35.2631C305.344 15.7878 293.164 0 278.14 0C263.116 0 250.937 15.7878 250.937 35.2631C250.937 54.7384 263.116 70.5262 278.14 70.5262Z" fill="#3F3D56"/>
<path opacity="0.1" d="M278.14 59.8758C264.512 59.8758 253.223 46.8844 251.24 29.9379C251.034 31.7054 250.931 33.4835 250.931 35.2631C250.931 54.7352 263.112 70.5262 278.14 70.5262C293.168 70.5262 305.344 54.7352 305.344 35.2631C305.344 33.4835 305.241 31.7054 305.034 29.9379C303.058 46.9082 291.769 59.8758 278.14 59.8758Z" fill="black"/>
<path d="M336.108 138.539C335.513 140.921 333.006 142.863 330.22 144.203C324.349 147.033 317.121 147.873 310.101 148.159C308.315 148.267 306.523 148.233 304.743 148.057C301.069 147.623 297.663 146.056 295.538 143.822C295.235 143.578 295.024 143.238 294.942 142.857C294.957 142.629 295.018 142.406 295.12 142.201C295.222 141.997 295.364 141.815 295.538 141.666C299.283 137.58 305.523 135.066 311.786 133.279C316.549 131.903 324.849 128.341 330.047 128.824C335.096 129.258 336.846 135.501 336.108 138.539Z" fill="#3F3D56"/>
<path opacity="0.1" d="M336.108 138.539C335.513 140.921 333.006 142.863 330.22 144.203C324.349 147.033 317.121 147.873 310.101 148.159C308.315 148.267 306.523 148.233 304.743 148.057C301.069 147.623 297.663 146.056 295.538 143.822C295.235 143.578 295.024 143.238 294.942 142.857C294.957 142.629 295.018 142.406 295.12 142.201C295.222 141.997 295.364 141.815 295.538 141.666C299.283 137.58 305.523 135.066 311.786 133.279C316.549 131.903 324.849 128.341 330.047 128.824C335.096 129.258 336.846 135.501 336.108 138.539Z" fill="black"/>
<path d="M261.529 120.586C259.743 124.09 259.42 128.16 260.63 131.903C261.863 135.625 264.174 138.896 267.268 141.303C274.872 147.408 285.303 148.248 295.026 148.171C303.551 148.094 312.065 147.509 320.521 146.419C323.337 146.056 326.183 145.627 328.791 144.501C331.964 143.125 334.745 140.606 335.882 137.353C337.019 134.101 336.215 130.074 333.5 127.894C331.119 125.976 327.886 125.714 324.855 125.512L307.499 124.469C309.214 122.73 311.495 121.747 313.584 120.49C316.353 118.81 318.193 115.999 320.211 113.467C323.188 109.679 326.761 106.367 330.333 103.073C330.928 106.314 332.947 108.976 335.358 111.216C337.769 113.455 340.55 115.254 343.063 117.381C349.136 122.539 353.506 129.544 359.894 134.31C364.289 133.153 368.398 131.101 371.963 128.281L369.48 123.784C369.277 123.313 368.955 122.903 368.546 122.593C367.837 122.164 366.932 122.384 366.116 122.265C363.937 121.938 362.985 119.418 362.127 117.387C359.781 111.8 355.28 107.469 351.41 102.787C348.587 99.3356 346.086 95.633 343.938 91.7258C342.646 89.3967 341.467 86.9605 339.71 84.9531C337.954 82.9457 335.507 81.3792 332.84 81.3792C330.458 81.3792 328.314 82.5705 326.29 83.7618C320.124 87.4272 314.19 91.4716 308.523 95.8716C305.546 98.1708 302.611 100.607 299.134 102.019C297.669 102.614 296.157 103.02 294.722 103.74C292.263 105.009 290.394 107.153 288.381 109.054C281.213 115.838 271.394 120.234 261.529 120.586Z" fill="#605D82"/>
<path d="M297.824 72.2775C297.747 74.3537 297.305 76.4001 296.52 78.3234C296.123 79.279 295.533 80.1424 294.787 80.8598C294.041 81.5772 293.156 82.1331 292.186 82.4931C290.806 82.8632 289.359 82.91 287.958 82.6301C286.734 82.498 285.556 82.0907 284.511 81.4387C282.886 80.3189 282.076 78.3234 281.778 76.3697C281.48 74.4159 281.617 72.4204 281.427 70.4548C281.241 68.866 280.939 67.2932 280.522 65.749C280.397 65.2368 280.266 64.7245 280.135 64.2122C280.004 63.7 279.891 63.1877 279.778 62.6754C279.664 62.1632 279.575 61.7164 279.492 61.228C279.408 60.7395 279.361 60.406 279.319 59.995C279.281 58.7668 279.081 57.549 278.724 56.3733C278.385 55.6123 277.959 54.8927 277.456 54.229C277.241 53.9192 277.033 53.6333 276.86 53.2938C276.306 52.4639 276.048 51.4712 276.128 50.4763C276.151 50.3221 276.188 50.1704 276.241 50.0236C276.259 49.9667 276.281 49.9109 276.306 49.8568C276.519 49.7985 276.714 49.6894 276.874 49.539C277.035 49.3885 277.157 49.2012 277.229 48.9931C277.311 48.5442 277.272 48.0817 277.116 47.6529C276.941 47.0539 276.699 46.4765 276.396 45.9314C276.199 45.574 275.526 44.9247 275.521 44.5137C275.521 43.6858 277.128 43.0186 277.783 42.691C279.784 41.6871 282.016 41.2347 284.249 41.3806C285.678 41.4759 287.226 41.9167 288.018 43.1199C288.732 44.198 288.613 45.5978 288.941 46.8547C288.968 47.0382 289.044 47.211 289.161 47.355C289.317 47.4965 289.512 47.586 289.721 47.6112C290.07 47.6816 290.427 47.6956 290.781 47.6529C290.875 47.6478 290.969 47.6338 291.06 47.6112C291.611 47.5093 292.132 47.2854 292.585 46.956C292.882 46.8726 293.18 46.813 293.472 46.7594H293.507C294.698 50.5001 294.847 54.503 295.818 58.3271C296.3 60.2213 297.008 62.0917 297.086 64.0455C297.086 64.1288 297.086 64.2182 297.086 64.3016C297.086 64.933 297.05 65.5644 297.086 66.1898C297.097 66.4698 297.128 66.7486 297.181 67.0238C297.288 67.4673 297.42 67.9048 297.574 68.3342C297.616 68.4712 297.657 68.6082 297.693 68.7512C297.723 68.851 297.746 68.9524 297.765 69.055C297.939 70.1207 297.959 71.206 297.824 72.2775Z" fill="#FBBEBE"/>
<path d="M281.224 47.8077C288.932 47.8077 295.181 41.5566 295.181 33.8455C295.181 26.1343 288.932 19.8832 281.224 19.8832C273.517 19.8832 267.268 26.1343 267.268 33.8455C267.268 41.5566 273.517 47.8077 281.224 47.8077Z" fill="#FBBEBE"/>
<path d="M369.838 109.923C369.431 106.118 368.078 102.474 365.902 99.3264L366.992 105.789C366.54 105.919 366.06 105.914 365.61 105.776C365.161 105.637 364.762 105.371 364.461 105.009C363.872 104.275 363.422 103.439 363.133 102.543C361.548 98.6056 359.473 94.8833 356.959 91.4637C348.076 90.7191 339.288 87.038 331.476 82.7373C323.664 78.4366 316.347 73.2961 308.631 68.8227C307.293 68.0155 305.9 67.3029 304.463 66.6902C302.052 65.7252 299.342 65.2249 297.056 64.0871L296.598 63.8429C296.079 63.5648 295.589 63.2377 295.133 62.866C294.888 62.6637 294.655 62.4469 294.436 62.2168C293.294 60.8897 292.388 59.3766 291.757 57.7434C290.531 55.0271 290.09 51.7451 288.869 49.0288C289.433 48.5044 290.063 48.0576 290.745 47.7005L291.043 47.5516C291.528 47.325 292.032 47.1417 292.549 47.0036C292.847 46.9202 293.144 46.8606 293.436 46.807H293.472C294.856 46.5839 296.273 46.6962 297.604 47.1346C299.545 47.7958 301.176 49.1063 302.82 50.3512C305.41 52.3109 308.101 54.1575 310.453 56.4031C311.798 57.6957 313.031 59.1134 314.477 60.2868C315.684 61.2185 316.955 62.0625 318.282 62.8124L341.824 76.8402C344.48 78.4187 347.141 80.0032 349.737 81.683C353.684 84.2264 357.477 86.9843 361.288 89.7423L368.01 94.6148C368.746 95.0922 369.391 95.6974 369.915 96.4017C370.376 97.1916 370.662 98.0711 370.754 98.981C371.313 102.65 370.999 106.399 369.838 109.923Z" fill="#FBBEBE"/>
<path d="M301.289 82.779C300.343 87.0022 296.08 89.5576 293.847 93.2686C291.072 97.873 292.204 103.228 293.251 108.506L287.542 113.426C286.494 114.325 285.44 115.213 284.314 116.029C282.664 117.139 280.939 118.134 279.152 119.007L274.103 121.604C272.537 122.485 270.878 123.188 269.156 123.701C265.833 124.553 262.309 123.957 259.034 122.974C258.646 122.873 258.274 122.721 257.926 122.521C257.722 122.399 257.544 122.237 257.402 122.045C257.076 121.464 256.958 120.79 257.069 120.133C257.402 114.605 258.754 109.191 260.1 103.818C260.807 100.591 261.764 97.4245 262.963 94.3467C264.145 91.7122 265.503 89.1609 267.03 86.7104C268.816 83.6904 270.602 80.6465 272.984 78.0554C274.002 76.9356 275.139 75.8753 275.747 74.4815C276.586 72.5634 276.259 70.3654 276.431 68.2806C276.56 66.7112 276.976 65.1787 277.658 63.7596C278.023 62.9958 278.461 62.2696 278.968 61.5913C279.2 62.1274 279.426 62.6635 279.658 63.1937L280.105 64.242C280.301 64.6888 280.492 65.1415 280.7 65.5882C281.256 66.8669 281.808 68.1476 282.356 69.4302C282.947 71.0459 283.793 72.5563 284.862 73.9037C285.999 75.1903 287.673 76.1255 289.375 75.9408C290.175 75.8074 290.935 75.4976 291.6 75.034C292.266 74.5704 292.819 73.9645 293.222 73.2603C294.019 71.8498 294.596 70.325 294.93 68.7393C295.4 66.8098 295.464 64.804 295.121 62.8482C294.526 59.0777 292.948 55.2297 291.787 51.7272C291.313 50.5602 291.039 49.3218 290.977 48.0639C290.976 47.9219 290.99 47.7801 291.019 47.641V47.5338C291.504 47.3072 292.008 47.1238 292.525 46.9858C292.823 46.9024 293.12 46.8428 293.412 46.7892C294.436 52.3487 295.462 57.8963 296.49 63.4319C296.49 63.563 296.544 63.694 296.568 63.8251C296.711 64.6233 296.86 65.4155 297.026 66.2077C297.193 66.9999 297.336 67.6433 297.514 68.3521C297.574 68.5904 297.639 68.8346 297.705 69.0728C297.89 69.7281 298.092 70.3714 298.3 71.0147C299.753 74.9044 302.176 78.7821 301.289 82.779Z" fill="#FF5693"/>
<path d="M357.936 142.149C357.884 142.969 358.042 143.789 358.394 144.531C359.263 146.128 361.371 146.491 363.157 146.64C373.752 147.514 384.411 147.19 394.934 145.675C395.505 145.633 396.059 145.46 396.553 145.168C398.047 144.12 397.148 141.565 395.493 140.743C393.838 139.921 391.921 140.147 390.135 139.772C388.353 139.321 386.656 138.585 385.11 137.592C381.478 135.503 377.905 133.319 374.392 131.039C372.291 129.687 369.808 128.246 367.444 129.05C361.02 131.218 357.888 135.233 357.936 142.149Z" fill="#2F2E41"/>
<path d="M279.831 62.3954L279.778 62.6873L279.688 63.1758C279.397 64.6768 279.033 66.1541 278.623 67.6611C277.485 71.7652 275.967 75.8097 274.455 79.7887L262.303 111.835C261.279 114.528 260.26 117.196 259.099 119.853C258.712 120.728 258.314 121.64 257.909 122.51C256.486 125.708 255.116 129.014 254.664 132.427C254.366 134.685 254.068 136.99 254.515 139.224C254.961 141.457 256.301 143.644 258.45 144.466C259.486 144.871 260.969 145.413 260.683 146.491C260.534 147.086 259.862 147.372 259.254 147.468C258.458 147.596 257.643 147.547 256.868 147.323C256.093 147.1 255.377 146.708 254.771 146.175C253.64 145.174 252.764 143.608 251.258 143.441C250.216 143.328 249.257 143.953 248.281 144.388C244.381 146.175 239.844 144.924 235.748 143.655C236.069 142 237.737 140.904 239.386 140.576C241.035 140.248 242.75 140.475 244.441 140.433C244.982 140.461 245.518 140.322 245.977 140.034C246.391 139.663 246.688 139.178 246.828 138.64C247.913 135.419 248.72 132.111 249.24 128.752C249.787 125.238 250.014 121.676 250.788 118.209C251.383 115.505 252.324 112.884 253.122 110.227C254.67 104.759 255.94 99.2166 256.926 93.62C257.426 91.297 257.784 88.9457 257.998 86.5793C258.135 84.6136 258.069 82.636 258.26 80.6822C258.576 78.1365 259.106 75.6218 259.844 73.165C260.57 70.4785 261.29 67.804 262.017 65.1236C263.089 61.1565 264.238 57.0404 266.953 53.9609C267.895 52.8754 269.051 51.9954 270.347 51.3755C271.644 50.7556 273.054 50.4089 274.49 50.3571C275.029 50.3547 275.566 50.4126 276.092 50.5299L276.354 50.5954C276.929 50.7436 277.48 50.9722 277.991 51.2745C278.831 50.7384 279.254 50.929 279.813 51.745C280.299 52.6165 280.528 53.6078 280.474 54.6042C280.517 57.2161 280.302 59.8259 279.831 62.3954Z" fill="#FBBEBE"/>
<path d="M280.748 65.5584L280.712 65.5942L280.522 65.7848L278.623 67.6849L277.688 63.7655L274.49 50.3393C275.029 50.3368 275.566 50.3948 276.092 50.512C276.115 50.3578 276.153 50.2062 276.205 50.0593L276.354 50.5776L277.438 54.2647L279.492 61.2637L279.831 62.4193L280.748 65.5584Z" fill="#FF5693"/>
<path d="M291.412 13.2535H275.419C271.473 13.2535 268.275 16.4537 268.275 20.4014V25.0416C268.275 28.9893 271.473 32.1895 275.419 32.1895H291.412C295.358 32.1895 298.556 28.9893 298.556 25.0416V20.4014C298.556 16.4537 295.358 13.2535 291.412 13.2535Z" fill="#3F3D56"/>
<path d="M300.325 23.4333C305.681 23.4333 310.024 19.089 310.024 13.73C310.024 8.37099 305.681 4.02667 300.325 4.02667C294.968 4.02667 290.626 8.37099 290.626 13.73C290.626 19.089 294.968 23.4333 300.325 23.4333Z" fill="#3F3D56"/>
<path opacity="0.1" d="M300.093 4.02074H299.735C302.233 4.12806 304.593 5.19634 306.323 7.00264C308.053 8.80894 309.018 11.2137 309.018 13.7151C309.018 16.2165 308.053 18.6213 306.323 20.4276C304.593 22.2339 302.233 23.3022 299.735 23.4095H300.093C302.665 23.4095 305.132 22.3872 306.951 20.5675C308.77 18.7477 309.792 16.2797 309.792 13.7062C309.792 11.1327 308.77 8.66462 306.951 6.8449C305.132 5.02518 302.665 4.00287 300.093 4.00287V4.02074Z" fill="black"/>
<path opacity="0.1" d="M257.093 4.02074H257.45C254.952 4.12806 252.592 5.19634 250.862 7.00264C249.133 8.80894 248.167 11.2137 248.167 13.7151C248.167 16.2165 249.133 18.6213 250.862 20.4276C252.592 22.2339 254.952 23.3022 257.45 23.4095H257.093C255.819 23.4095 254.558 23.1585 253.381 22.6709C252.205 22.1832 251.135 21.4685 250.235 20.5675C249.334 19.6664 248.62 18.5967 248.132 17.4195C247.645 16.2422 247.394 14.9804 247.394 13.7062C247.394 12.4319 247.645 11.1701 248.132 9.99289C248.62 8.81563 249.334 7.74594 250.235 6.8449C251.135 5.94386 252.205 5.22913 253.381 4.74149C254.558 4.25385 255.819 4.00287 257.093 4.00287V4.02074Z" fill="black"/>
<path opacity="0.1" d="M298.854 30.2893H274.276C273.524 30.2893 272.802 29.9908 272.27 29.4592C271.738 28.9277 271.438 28.2065 271.436 27.454V29.3422C271.438 30.0953 271.737 30.8171 272.27 31.3496C272.802 31.8821 273.523 32.182 274.276 32.1835H298.878C299.631 32.182 300.352 31.8821 300.884 31.3496C301.417 30.8171 301.716 30.0953 301.718 29.3422V27.454C301.716 27.8284 301.641 28.1988 301.496 28.5441C301.351 28.8893 301.14 29.2026 300.874 29.4659C300.608 29.7293 300.293 29.9376 299.946 30.0789C299.599 30.2202 299.228 30.2917 298.854 30.2893Z" fill="black"/>
<path d="M382.234 129.616C382.234 129.616 383.77 129.884 384.02 128.639C384.145 128.043 383.722 124.219 383.24 120.395C383.008 118.513 382.758 116.636 382.555 115.135C382.311 113.295 382.132 112.026 382.132 112.026L381.853 111.097L380.197 105.533L378.638 100.291L377.488 98.2304L369.218 102.257L364.074 111.15L365.67 112.157L365.95 112.336L368.885 115.409L377.113 124.046L380.817 127.936L381.251 128.389L382.234 129.616Z" fill="#FFE09C"/>
<path d="M375.732 94.6922C375.732 94.6922 366.67 98.9452 364.491 103.568C364.491 103.568 362.455 107.457 362.199 109.524C362.199 109.524 361.603 111.412 365.36 111.877C365.36 111.877 367.069 104.938 372.195 101.924L377.328 98.9154L375.732 94.6922Z" fill="#E7C4C3"/>
<path d="M378.093 105.369C378.535 103.719 377.761 102.078 376.364 101.703C374.967 101.329 373.476 102.362 373.034 104.012C372.592 105.662 373.366 107.303 374.763 107.678C376.16 108.052 377.651 107.019 378.093 105.369Z" fill="#FF7F8E"/>
<path d="M377.11 116.153C377.548 114.51 376.774 112.877 375.383 112.506C373.991 112.135 372.508 113.166 372.07 114.81C371.633 116.453 372.406 118.086 373.798 118.457C375.189 118.828 376.672 117.797 377.11 116.153Z" fill="#FF7F8E"/>
<path d="M368.885 115.409C369.36 115.216 369.782 114.913 370.116 114.525C370.451 114.136 370.688 113.674 370.808 113.176C371.249 111.532 370.475 109.893 369.081 109.524C367.688 109.155 366.206 110.185 365.771 111.829C365.737 111.94 365.711 112.054 365.693 112.169L365.973 112.348L368.885 115.409Z" fill="#FF7F8E"/>
<path d="M379.953 111.436C380.28 111.519 380.62 111.531 380.951 111.473C381.283 111.414 381.598 111.286 381.877 111.097L380.221 105.533C379.728 105.716 379.288 106.018 378.939 106.412C378.59 106.805 378.343 107.279 378.221 107.791C377.786 109.453 378.56 111.067 379.953 111.436Z" fill="#FF7F8E"/>
<path d="M380.912 121.062C381.328 121.16 381.763 121.151 382.174 121.034C382.586 120.917 382.961 120.697 383.264 120.395C383.032 118.513 382.782 116.636 382.579 115.135H382.502C381.108 114.76 379.626 115.796 379.185 117.44C378.745 119.085 379.525 120.693 380.912 121.062Z" fill="#FF7F8E"/>
<path d="M380.817 127.918C380.988 127.63 381.118 127.319 381.204 126.995C381.644 125.351 380.87 123.719 379.477 123.349C379.055 123.247 378.614 123.256 378.197 123.375C377.779 123.494 377.4 123.719 377.095 124.028L380.817 127.918Z" fill="#FF7F8E"/>
<path d="M376.726 103.008L377.679 103.264C377.305 103.953 377.083 104.715 377.03 105.497C377.027 105.549 377.027 105.601 377.03 105.652C377.155 106.635 376.077 105.396 376.077 105.396C376.077 105.396 376.262 103.377 376.726 103.008Z" fill="#94CC79"/>
<path d="M372.386 109.155L373.344 109.411C372.967 110.097 372.745 110.857 372.695 111.639C372.692 111.69 372.692 111.742 372.695 111.794C372.82 112.776 371.743 111.537 371.743 111.537C371.743 111.537 371.921 109.518 372.386 109.155Z" fill="#94CC79"/>
<path d="M375.351 111.186L376.304 111.436C375.929 112.125 375.708 112.887 375.655 113.67C375.652 113.722 375.652 113.773 375.655 113.825C375.786 114.808 374.702 113.569 374.702 113.569C374.702 113.569 374.898 111.549 375.351 111.186Z" fill="#94CC79"/>
<path d="M379.161 116.315L380.12 116.565C379.743 117.253 379.521 118.015 379.471 118.799C379.468 118.85 379.468 118.902 379.471 118.953C379.596 119.936 378.518 118.697 378.518 118.697C378.518 118.697 378.703 116.678 379.161 116.315Z" fill="#94CC79"/>
<path d="M381.537 124.755L382.49 125.011C382.116 125.699 381.895 126.458 381.841 127.239C381.838 127.291 381.838 127.342 381.841 127.394C381.972 128.377 380.888 127.144 380.888 127.144C380.888 127.144 381.073 125.119 381.537 124.755Z" fill="#94CC79"/>
<path d="M376.369 118.852L377.322 119.108C376.945 119.805 376.728 120.576 376.685 121.366C376.681 121.417 376.681 121.469 376.685 121.521C376.81 122.504 375.732 121.271 375.732 121.271C375.732 121.271 375.911 119.216 376.369 118.852Z" fill="#94CC79"/>
<path d="M378.679 95.4785C378.679 95.4785 377.316 92.387 375.702 94.6922C375.838 96.5638 376.453 98.369 377.488 99.934C377.488 99.934 382.424 113.366 382.013 115.421C382.013 115.421 383.96 128.395 383.478 129.121C383.478 129.121 384.014 130.039 384.395 126.59C384.776 123.141 383.103 113.009 383.103 113.009L380.656 102.477L379.019 98.9035L378.679 95.4785Z" fill="#E7C4C3"/>
<path opacity="0.2" d="M378.679 95.4785C378.679 95.4785 377.316 92.387 375.702 94.6922C375.838 96.5638 376.453 98.369 377.488 99.934C377.488 99.934 382.424 113.366 382.013 115.421C382.013 115.421 383.96 128.395 383.478 129.121C383.478 129.121 384.014 130.039 384.395 126.59C384.776 123.141 383.103 113.009 383.103 113.009L380.656 102.477L379.019 98.9035L378.679 95.4785Z" fill="white"/>
<path d="M362.306 100.601C362.306 100.601 364.753 107.654 366.991 105.777L365.205 96.5626L362.306 100.601Z" fill="#FBBEBE"/>
<path d="M194.939 129.568C194.939 129.568 216.522 165.945 221.565 170.806C221.565 170.806 243.131 193.203 232.17 191.654C231.366 191.541 215.582 178.192 214.659 176C213.736 173.808 183.895 135.024 183.895 135.024L188.152 131.105L194.939 129.568Z" fill="#A0616A"/>
<path opacity="0.1" d="M194.939 129.568C194.939 129.568 216.522 165.945 221.565 170.806C221.565 170.806 243.131 193.203 232.17 191.654C231.366 191.541 215.582 178.192 214.659 176C213.736 173.808 183.895 135.024 183.895 135.024L188.152 131.105L194.939 129.568Z" fill="black"/>
<path d="M214.677 248.373C214.677 248.373 207.77 257.01 210.652 260.465C213.534 263.919 227.889 270.525 232.521 270.251C237.415 269.965 253.818 270.847 254.396 263.342C254.396 263.342 255.545 259.887 240.583 259.309C225.62 258.731 230.217 243.184 230.217 243.184L214.677 248.373Z" fill="#2F2E41"/>
<path d="M132.369 175.237C132.369 175.237 125.462 198.843 146.182 202.876L168.629 201.726C168.629 201.726 200.286 195.389 208.925 199.999C208.925 199.999 212.379 200.595 211.224 205.181C210.068 209.768 212.95 240.885 212.95 240.885V251.25C212.95 251.25 232.521 251.25 234.825 248.944C234.825 248.944 233.098 239.73 234.825 232.266C236.552 224.802 231.949 201.167 231.949 201.167L231.491 186.984C231.456 185.226 230.954 183.51 230.036 182.011C229.118 180.512 227.818 179.284 226.269 178.454C225.181 177.877 223.97 177.569 222.739 177.555C222.739 177.555 183.597 171.223 169.784 172.372C155.971 173.522 132.369 175.237 132.369 175.237Z" fill="#605D82"/>
<path d="M170.933 99.797C170.933 99.797 181.293 111.889 182.442 115.922C183.591 119.954 196.279 130.301 196.279 130.301C196.279 130.301 187.068 137.21 188.795 140.665C190.521 144.12 176.708 129.151 176.708 129.151L160.555 105.557L170.933 99.797Z" fill="#FF5693"/>
<path opacity="0.1" d="M170.933 99.797C170.933 99.797 181.293 111.889 182.442 115.922C183.591 119.954 196.279 130.301 196.279 130.301C196.279 130.301 187.068 137.21 188.795 140.665C190.521 144.12 176.708 129.151 176.708 129.151L160.555 105.557L170.933 99.797Z" fill="black"/>
<path d="M177.822 85.9776C177.822 85.9776 172.642 102.656 172.642 109.012C172.642 115.368 150.767 107.284 151.344 103.83C151.922 100.375 164.008 87.7051 164.586 82.5228C165.163 77.3406 177.822 85.9776 177.822 85.9776Z" fill="#A0616A"/>
<path opacity="0.1" d="M160.555 97.4918C160.555 97.4918 140.407 92.3095 137.531 121.682C134.655 151.054 139.829 154.502 131.196 172.354C122.563 190.206 189.908 174.66 189.908 174.66C189.908 174.66 186.455 170.627 175.517 172.354L170.337 156.808C170.337 156.808 168.611 149.898 178.399 149.898C188.188 149.898 183.579 129.741 183.579 129.741C183.579 129.741 178.399 112.467 175.517 110.739C172.636 109.012 167.48 98.6474 160.555 97.4918Z" fill="black"/>
<path d="M160.555 96.3481C160.555 96.3481 140.407 91.1658 137.531 120.532C134.655 149.898 139.829 153.359 131.196 171.211C122.563 189.063 189.908 173.516 189.908 173.516C189.908 173.516 186.455 169.483 175.517 171.211L170.337 155.664C170.337 155.664 168.629 148.766 178.417 148.766C188.205 148.766 183.597 128.609 183.597 128.609C183.597 128.609 178.417 111.335 175.535 109.607C172.654 107.88 167.48 97.4918 160.555 96.3481Z" fill="#FF5693"/>
<path d="M172.659 96.3421C183.149 96.3421 191.653 87.8348 191.653 77.3406C191.653 66.8463 183.149 58.339 172.659 58.339C162.17 58.339 153.666 66.8463 153.666 77.3406C153.666 87.8348 162.17 96.3421 172.659 96.3421Z" fill="#A0616A"/>
<path d="M168.992 174.636L216.725 203.18L261.136 161.781L208.193 143.334L170.093 169.281L168.992 174.636Z" fill="#DADAE5"/>
<path d="M225.322 94.7339L210.467 138.932L259.719 153.103L280.742 93.3341L225.322 94.7339Z" fill="#DADAE5"/>
<path opacity="0.03" d="M221.357 91.4697L225.388 95.1568L280.808 93.757L282.082 90.1354L221.357 91.4697Z" fill="black"/>
<path opacity="0.03" d="M206.728 136.388L221.357 91.4697L225.388 95.1568L210.908 138.247L206.728 136.388Z" fill="black"/>
<path d="M221.292 91.0467L225.322 94.7339L280.742 93.3341L282.016 89.7125L221.292 91.0467Z" fill="#EFF0F4"/>
<path d="M206.663 135.971L221.292 91.0468L225.322 94.7339L210.842 137.824L206.663 135.971Z" fill="#EFF0F4"/>
<path opacity="0.03" d="M221.292 91.0467L227.454 96.8127L282.88 95.4129L282.016 89.7125L221.292 91.0467Z" fill="black"/>
<path opacity="0.03" d="M206.663 135.971L221.292 91.0468L227.454 96.8127L212.974 139.903L206.663 135.971Z" fill="black"/>
<path opacity="0.03" d="M206.758 136.603L208.104 145.151L261.374 163.652L259.82 153.734L206.758 136.603Z" fill="black"/>
<path opacity="0.03" d="M167.378 164.694L206.758 136.603L208.479 145.145L169.796 173.927L167.378 164.694Z" fill="black"/>
<path d="M206.663 135.971L207.818 143.34L261.088 161.841L259.719 153.103L206.663 135.971Z" fill="#EFF0F4"/>
<path d="M167.277 164.057L206.663 135.971L208.193 143.334L169.51 172.116L167.277 164.057Z" fill="#EFF0F4"/>
<path opacity="0.03" d="M206.663 135.971L207.818 143.34L261.088 161.841L259.719 153.103L206.663 135.971Z" fill="black"/>
<path opacity="0.03" d="M167.277 164.057L206.663 135.971L208.193 143.334L169.51 172.116L167.277 164.057Z" fill="black"/>
<path d="M167.277 164.057L169.057 174.678L216.659 203.132L215.486 192.202L167.277 164.057Z" fill="#CCCAD6"/>
<path d="M188.967 162.377C188.967 162.377 188.14 163.956 189.402 164.682C189.997 165.028 194.302 165.874 198.625 166.684C200.744 167.077 202.87 167.458 204.579 167.756C206.663 168.125 208.104 168.352 208.104 168.352H209.199L215.82 168.477L222.048 168.596L224.685 168.054L223.167 157.701L215.284 149.034L213.635 150.428L213.355 150.666L209.02 152.775L196.791 158.732L191.289 161.412L190.646 161.728L188.967 162.377Z" fill="#FFE09C"/>
<path d="M229.139 167.375C229.139 167.375 227.656 156.057 223.381 152.09C223.381 152.09 219.869 148.516 217.707 147.539C217.707 147.539 215.868 146.235 214.057 150.166C214.057 150.166 221.006 154.419 222.506 161.037L224.001 167.655L229.139 167.375Z" fill="#E7C4C3"/>
<path d="M220.783 163.335C221.668 161.949 221.06 159.978 219.425 158.933C217.79 157.888 215.747 158.165 214.862 159.551C213.977 160.937 214.585 162.908 216.22 163.953C217.855 164.998 219.898 164.721 220.783 163.335Z" fill="#FF7F8E"/>
<path d="M209.922 160.877C210.807 159.491 210.199 157.52 208.564 156.475C206.929 155.43 204.886 155.707 204.001 157.093C203.116 158.48 203.724 160.45 205.359 161.495C206.994 162.54 209.037 162.263 209.922 160.877Z" fill="#FF7F8E"/>
<path d="M209.021 152.781C209.067 153.367 209.253 153.933 209.564 154.432C209.875 154.93 210.301 155.347 210.807 155.646C212.438 156.689 214.48 156.415 215.361 155.051C216.243 153.686 215.641 151.697 214.004 150.655C213.892 150.583 213.777 150.518 213.659 150.458L213.379 150.696L209.021 152.781Z" fill="#FF7F8E"/>
<path d="M209.497 166.177C209.294 166.504 209.162 166.869 209.11 167.25C209.058 167.631 209.086 168.018 209.193 168.387L215.814 168.512C215.788 167.906 215.612 167.316 215.3 166.796C214.988 166.276 214.55 165.842 214.028 165.534C212.42 164.515 210.378 164.795 209.497 166.177Z" fill="#FF7F8E"/>
<path d="M198.708 163.896C198.457 164.315 198.317 164.791 198.302 165.279C198.287 165.767 198.399 166.251 198.625 166.684C200.745 167.077 202.87 167.458 204.579 167.756L204.632 167.678C205.514 166.297 204.906 164.325 203.275 163.283C201.644 162.24 199.595 162.514 198.708 163.896Z" fill="#FF7F8E"/>
<path d="M191.29 161.424C191.545 161.708 191.837 161.957 192.159 162.163C193.79 163.205 195.832 162.931 196.714 161.567C196.967 161.147 197.108 160.668 197.121 160.177C197.135 159.687 197.021 159.201 196.791 158.767L191.29 161.424Z" fill="#FF7F8E"/>
<path d="M219.761 165.582L219.166 166.529C218.549 165.885 217.799 165.383 216.969 165.058L216.796 165.016C215.683 164.813 217.392 164.069 217.392 164.069C217.392 164.069 219.529 164.956 219.761 165.582Z" fill="#94CC79"/>
<path d="M214.587 158.744L213.992 159.697C213.376 159.05 212.626 158.546 211.795 158.219L211.622 158.178C210.515 157.981 212.218 157.231 212.218 157.231C212.218 157.231 214.355 158.118 214.587 158.744Z" fill="#94CC79"/>
<path d="M211.36 161.275L210.765 162.222C210.148 161.578 209.398 161.076 208.568 160.751L208.395 160.709C207.282 160.507 208.991 159.762 208.991 159.762C208.991 159.762 211.122 160.638 211.36 161.275Z" fill="#94CC79"/>
<path d="M204.472 163.658L203.876 164.611C203.26 163.964 202.51 163.46 201.679 163.134L201.507 163.092C200.393 162.895 202.102 162.145 202.102 162.145C202.102 162.145 204.233 163.008 204.472 163.658Z" fill="#94CC79"/>
<path d="M194.493 163.3L193.897 164.253C193.279 163.607 192.527 163.103 191.694 162.776L191.522 162.734C190.414 162.538 192.117 161.787 192.117 161.787C192.117 161.787 194.249 162.669 194.493 163.3Z" fill="#94CC79"/>
<path d="M202.68 159.726L202.084 160.674C201.468 160.027 200.718 159.523 199.887 159.196L199.714 159.155C198.601 158.958 200.31 158.208 200.31 158.208C200.31 158.208 202.441 159.095 202.68 159.726Z" fill="#94CC79"/>
<path d="M227.24 170.311C227.24 170.311 231.068 169.894 229.115 167.375C227.041 166.868 224.872 166.905 222.816 167.482C222.816 167.482 206.52 168.209 204.406 167.041C204.406 167.041 189.64 164.658 189.045 163.908C189.045 163.908 187.854 164.17 191.474 165.778C195.094 167.387 206.675 169.066 206.675 169.066L218.958 170.043L223.376 169.495L227.24 170.311Z" fill="#E7C4C3"/>
<path opacity="0.2" d="M227.24 170.311C227.24 170.311 231.068 169.894 229.115 167.375C227.041 166.868 224.872 166.905 222.816 167.482C222.816 167.482 206.52 168.209 204.406 167.041C204.406 167.041 189.64 164.658 189.045 163.908C189.045 163.908 187.854 164.17 191.474 165.778C195.094 167.387 206.675 169.066 206.675 169.066L218.958 170.043L223.376 169.495L227.24 170.311Z" fill="white"/>
<path d="M215.629 164.468C215.451 165.025 215.407 165.617 215.504 166.194C215.6 166.771 215.833 167.317 216.183 167.786C217.302 169.364 219.297 169.876 220.643 168.929C221.988 167.982 222.161 165.951 221.036 164.343C220.958 164.236 220.875 164.128 220.791 164.027L220.434 164.146L215.629 164.468Z" fill="#FF7F8E"/>
<path d="M215.487 192.202L259.719 153.103L261.076 161.734L216.66 203.132L215.487 192.202Z" fill="#CCCAD6"/>
<path d="M265.458 155.33L259.719 153.103L282.016 89.7125L286.267 92.7146L265.458 155.33Z" fill="#CCCAD6"/>
<g opacity="0.1">
<path opacity="0.1" d="M229.562 247.723C229.606 246.19 229.828 244.667 230.223 243.184L229.931 243.286C229.645 244.747 229.521 246.235 229.562 247.723Z" fill="white"/>
<path opacity="0.1" d="M232.521 269.09C227.889 269.364 213.528 262.752 210.652 259.297C210.272 258.832 210.04 258.263 209.985 257.665C209.9 258.151 209.915 258.648 210.03 259.128C210.145 259.607 210.356 260.058 210.652 260.453C213.528 263.907 227.889 270.513 232.521 270.239C237.415 269.953 253.818 270.835 254.396 263.33C254.436 263.128 254.409 262.919 254.318 262.734C252.997 269.632 237.29 268.822 232.521 269.09Z" fill="white"/>
</g>
<path d="M249.341 129.336C249.341 129.336 250.365 128.145 249.436 127.287C248.99 126.87 245.489 125.273 241.964 123.713C240.231 122.95 238.487 122.2 237.099 121.604L234.212 120.371L233.277 120.133L227.651 118.697L222.357 117.345L219.976 117.28L219.178 126.447L224.173 135.429L225.852 134.572L226.144 134.423L230.27 133.494L241.928 130.896L247.162 129.705L247.757 129.568L249.341 129.336Z" fill="#FFE09C"/>
<path d="M216.046 117C216.046 117 215.04 126.959 217.892 131.206C217.892 131.206 220.178 134.947 221.822 136.234C221.822 136.234 223.131 137.711 225.471 134.721C225.471 134.721 220.387 129.693 220.44 123.743L220.488 117.786L216.046 117Z" fill="#E7C4C3"/>
<path d="M226.663 126.594C227.696 125.59 227.572 123.787 226.387 122.568C225.202 121.348 223.404 121.174 222.372 122.178C221.339 123.183 221.462 124.985 222.647 126.205C223.832 127.424 225.63 127.599 226.663 126.594Z" fill="#FF7F8E"/>
<path d="M235.446 130.869C236.478 129.865 236.355 128.062 235.17 126.843C233.985 125.623 232.187 125.449 231.154 126.453C230.122 127.458 230.245 129.26 231.43 130.48C232.615 131.699 234.413 131.874 235.446 130.869Z" fill="#FF7F8E"/>
<path d="M230.294 133.499C230.373 132.993 230.33 132.474 230.169 131.987C230.007 131.5 229.732 131.059 229.365 130.7C228.174 129.509 226.388 129.306 225.346 130.313C224.304 131.319 224.441 133.118 225.626 134.339C225.705 134.423 225.789 134.503 225.876 134.578L226.168 134.429L230.294 133.499Z" fill="#FF7F8E"/>
<path d="M232.598 121.961C232.837 121.723 233.023 121.437 233.143 121.122C233.263 120.807 233.315 120.47 233.295 120.133L227.668 118.697C227.571 119.215 227.604 119.748 227.763 120.25C227.922 120.752 228.202 121.207 228.579 121.574C229.746 122.801 231.544 122.974 232.598 121.961Z" fill="#FF7F8E"/>
<path d="M241.327 126.084C241.628 125.774 241.845 125.393 241.957 124.976C242.068 124.558 242.071 124.119 241.964 123.701C240.231 122.938 238.487 122.188 237.1 121.592L237.034 121.646C236.004 122.652 236.129 124.457 237.314 125.678C238.499 126.9 240.297 127.09 241.327 126.084Z" fill="#FF7F8E"/>
<path d="M247.162 129.705C247.004 129.409 246.803 129.138 246.566 128.901C245.376 127.68 243.589 127.507 242.553 128.514C242.25 128.822 242.033 129.204 241.922 129.621C241.812 130.039 241.812 130.479 241.922 130.896L247.162 129.705Z" fill="#FF7F8E"/>
<path d="M223.667 120.413L224.376 119.728C224.775 120.401 225.315 120.981 225.96 121.425L226.096 121.497C227.007 121.89 225.388 122.182 225.388 122.182C225.388 122.182 223.768 120.997 223.667 120.413Z" fill="#94CC79"/>
<path d="M226.74 127.322L227.442 126.631C227.841 127.307 228.381 127.889 229.026 128.335L229.163 128.401C230.074 128.8 228.454 129.092 228.454 129.092C228.454 129.092 226.811 127.87 226.74 127.322Z" fill="#94CC79"/>
<path d="M229.996 125.792L230.705 125.101C231.103 125.776 231.644 126.358 232.289 126.804L232.426 126.87C233.337 127.269 231.717 127.561 231.717 127.561C231.717 127.561 230.074 126.375 229.996 125.792Z" fill="#94CC79"/>
<path d="M236.355 125.148L237.064 124.457C237.461 125.132 238 125.713 238.642 126.161L238.784 126.232C239.689 126.626 238.076 126.917 238.076 126.917C238.076 126.917 236.433 125.732 236.355 125.148Z" fill="#94CC79"/>
<path d="M244.816 127.448L245.524 126.757C245.92 127.433 246.458 128.014 247.102 128.46L247.245 128.526C248.15 128.925 246.537 129.217 246.537 129.217C246.537 129.217 244.893 128.025 244.816 127.448Z" fill="#94CC79"/>
<path d="M237.099 128.847L237.808 128.162C238.207 128.836 238.748 129.415 239.392 129.86C239.434 129.89 239.48 129.914 239.529 129.931C240.44 130.325 238.82 130.622 238.82 130.622C238.82 130.622 237.177 129.431 237.099 128.847Z" fill="#94CC79"/>
<path d="M218.237 114.867C218.237 114.867 214.885 114.456 216.046 117C217.715 117.852 219.574 118.262 221.446 118.191C221.446 118.191 235.504 120.848 237.076 122.265C237.076 122.265 249.204 127.257 249.579 128.031C249.579 128.031 250.645 128.031 247.882 125.941C245.119 123.85 235.575 120.067 235.575 120.067L225.287 116.761L221.405 116.338L218.237 114.867Z" fill="#E7C4C3"/>
<path opacity="0.2" d="M218.237 114.867C218.237 114.867 214.885 114.456 216.046 117C217.715 117.852 219.574 118.262 221.446 118.191C221.446 118.191 235.504 120.848 237.076 122.265C237.076 122.265 249.204 127.257 249.579 128.031C249.579 128.031 250.645 128.031 247.882 125.941C245.119 123.85 235.575 120.067 235.575 120.067L225.287 116.761L221.405 116.338L218.237 114.867Z" fill="white"/>
<path d="M201.096 128.74C202.806 127.842 204.353 126.665 205.674 125.256C206.27 124.553 206.77 123.76 207.383 123.069C208.929 121.417 210.938 120.271 213.147 119.781C215.338 119.3 217.578 119.082 219.821 119.132C221.322 119.036 222.828 119.218 224.263 119.668C224.981 119.903 225.627 120.317 226.142 120.87C226.656 121.423 227.022 122.098 227.204 122.831C227.531 124.618 226.364 126.352 224.965 127.501C223.662 128.565 222.129 129.309 220.488 129.675C219.15 129.907 217.8 130.064 216.445 130.146C208.479 130.98 201.37 135.316 194.415 139.265C188.283 142.738 184.806 142.577 178.441 145.591C178.191 143.685 175.309 145.163 175.351 143.239C175.387 141.803 175.458 139.611 176.815 138.765C178.393 137.782 180.983 137.574 182.769 136.978C186.873 135.632 190.881 134.01 194.767 132.124C196.914 131.071 199.024 129.943 201.096 128.74Z" fill="#A0616A"/>
<path opacity="0.1" d="M148.486 123.409L179.012 151.048C179.012 151.048 184.77 139.534 186.497 139.534C188.223 139.534 165.777 105.581 165.777 105.581C165.777 105.581 160.019 98.6712 156.566 102.126C153.113 105.581 142.729 103.252 148.486 123.409Z" fill="black"/>
<path d="M147.909 122.259L178.417 149.898C178.417 149.898 184.175 138.378 185.901 138.378C187.628 138.378 165.175 104.425 165.175 104.425C165.175 104.425 159.418 97.5096 155.965 100.964C152.511 104.419 142.151 102.102 147.909 122.259Z" fill="#FF5693"/>
<path d="M198.137 73.5403C198.803 72.7989 199.344 71.954 199.738 71.0385C202.37 65.0819 198.196 57.6004 191.069 55.5513C187.497 54.5089 183.496 54.7174 179.929 53.6095C177.059 52.7219 174.642 51.0422 172.01 49.7317C167.065 47.2941 161.593 46.1194 156.084 46.3126C150.695 46.5032 144.837 48.3974 142.628 52.5611C139.401 58.6249 145.337 66.2613 141.74 72.1643C139.097 76.5007 132.684 77.7814 127.368 79.6637C121.863 81.5683 116.851 84.6754 112.697 88.7594C108.529 92.929 105.552 98.6474 107.648 103.818C108.869 106.85 111.625 109.22 113.816 111.835C117.472 116.126 119.61 121.504 119.9 127.134C120.189 132.764 118.614 138.333 115.418 142.976C114.394 144.448 113.197 145.883 112.774 147.551C111.762 151.53 115.847 155.533 120.568 156.307C125.29 157.082 130.19 155.319 133.863 152.715C137.255 150.376 139.985 147.2 141.788 143.495C146.152 134.238 143.086 123.838 142.651 113.872C142.598 112.711 142.651 111.448 143.467 110.537C144.729 109.173 147.111 109.208 149.147 109.03C154.416 108.565 159.269 105.611 161.502 101.536C165.771 93.6974 160.799 82.7432 168.259 76.8462C177.649 69.4243 191.164 81.1588 198.137 73.5403Z" fill="#3F3D56"/>
<path opacity="0.1" d="M191.069 55.5275H191.01C193.796 58.7559 194.844 63.1162 193.189 66.8808C192.794 67.7962 192.253 68.6412 191.587 69.3825C184.615 77.001 171.1 65.2665 161.71 72.6884C154.25 78.5855 159.221 89.5397 154.952 97.3786C152.737 101.453 147.867 104.407 142.598 104.872C140.562 105.051 138.18 105.015 136.918 106.379C136.078 107.29 136.048 108.553 136.102 109.715C136.537 119.68 139.603 130.08 135.239 139.337C133.435 143.042 130.706 146.219 127.314 148.558C123.64 151.149 118.746 152.936 114.019 152.162L113.691 152.09C114.499 153.218 115.522 154.175 116.703 154.903C117.884 155.631 119.198 156.117 120.568 156.331C125.296 157.1 130.16 155.313 133.863 152.715C137.255 150.376 139.985 147.2 141.788 143.495C146.152 134.238 143.086 123.838 142.651 113.872C142.598 112.711 142.651 111.448 143.467 110.537C144.729 109.173 147.111 109.208 149.147 109.03C154.417 108.565 159.269 105.611 161.502 101.536C165.771 93.6974 160.799 82.7432 168.26 76.8462C177.649 69.4242 191.164 81.1587 198.137 73.5402C198.803 72.7989 199.344 71.9539 199.738 71.0385C202.37 65.064 198.196 57.6301 191.069 55.5275Z" fill="black"/>
</svg>
