<svg width="526" height="408" viewBox="0 0 526 408" fill="none" xmlns="http://www.w3.org/2000/svg">
<g clip-path="url(#clip0)">
<path d="M402.662 370.567C418.13 370.567 430.67 344.982 430.67 313.42C430.67 281.859 418.13 256.273 402.662 256.273C387.194 256.273 374.655 281.859 374.655 313.42C374.655 344.982 387.194 370.567 402.662 370.567Z" fill="#3F3D56"/>
<path d="M400.076 406.961C411.294 339.659 400.189 272.6 400.076 271.931L397.894 272.3C398.007 272.966 409.047 339.673 397.893 406.598L400.076 406.961Z" fill="#E4B61A"/>
<path d="M378.004 301.132L376.96 303.084L402.287 316.63L403.331 314.679L378.004 301.132Z" fill="#E4B61A"/>
<path d="M429.017 307.918L403.693 321.473L404.738 323.424L430.061 309.87L429.017 307.918Z" fill="#E4B61A"/>
<path d="M469.957 334.75C500.211 334.75 524.737 284.707 524.737 222.977C524.737 161.246 500.211 111.204 469.957 111.204C439.703 111.204 415.177 161.246 415.177 222.977C415.177 284.707 439.703 334.75 469.957 334.75Z" fill="#E6E6E6"/>
<path d="M463.855 405.758C485.766 274.296 464.076 143.313 463.854 142.006L461.672 142.375C461.894 143.68 483.519 274.31 461.672 405.395L463.855 405.758Z" fill="#E4B61A"/>
<path d="M421.229 199.875L420.185 201.826L469.722 228.323L470.766 226.371L421.229 199.875Z" fill="#E4B61A"/>
<path d="M522.001 213.148L472.471 239.658L473.516 241.61L523.045 215.099L522.001 213.148Z" fill="#E4B61A"/>
<path d="M342.731 406.109H51.354C50.2824 406.108 49.255 405.681 48.4972 404.924C47.7394 404.166 47.3131 403.138 47.3119 402.067V217.951C47.3131 216.879 47.7393 215.852 48.4971 215.094C49.2549 214.336 50.2823 213.91 51.354 213.909H342.731C343.803 213.91 344.83 214.336 345.588 215.094C346.345 215.852 346.772 216.879 346.773 217.951V402.067C346.772 403.138 346.345 404.166 345.588 404.924C344.83 405.681 343.803 406.108 342.731 406.109Z" fill="#E6E6E6"/>
<path d="M78.1501 236.22C77.6908 236.22 77.2504 236.403 76.9257 236.728C76.6009 237.053 76.4182 237.493 76.4177 237.952V382.066C76.4182 382.525 76.6009 382.966 76.9257 383.29C77.2504 383.615 77.6908 383.798 78.1501 383.798H315.935C316.394 383.798 316.835 383.615 317.159 383.29C317.484 382.966 317.667 382.525 317.667 382.066V237.952C317.667 237.493 317.484 237.053 317.159 236.728C316.835 236.403 316.394 236.22 315.935 236.22H78.1501Z" fill="white"/>
<path d="M318.245 264.206H73.0883V273.338H318.245V264.206Z" fill="#E6E6E6"/>
<path d="M318.245 308.852H73.0883V317.984H318.245V308.852Z" fill="#E6E6E6"/>
<path d="M212.068 284.5H109.584V293.632H212.068V284.5Z" fill="#E6E6E6"/>
<path d="M318.245 356.035H73.0883V365.167H318.245V356.035Z" fill="#E6E6E6"/>
<path d="M114.15 235.642H105.018V361.616H114.15V235.642Z" fill="#E6E6E6"/>
<path d="M284.618 235.642H275.486V313.926H284.618V235.642Z" fill="#E6E6E6"/>
<path d="M215.619 235.642H206.487V384.376H215.619V235.642Z" fill="#E6E6E6"/>
<path d="M163.362 310.374H154.23V384.375H163.362V310.374Z" fill="#E6E6E6"/>
<path d="M211.053 326.242C217.497 326.242 222.722 321.018 222.722 314.573C222.722 308.129 217.497 302.904 211.053 302.904C204.608 302.904 199.384 308.129 199.384 314.573C199.384 321.018 204.608 326.242 211.053 326.242Z" fill="#E4B61A"/>
<path d="M525.772 407.097H0V405.837H526L525.772 407.097Z" fill="#3F3D56"/>
<path d="M212.451 245.254C252.206 245.254 284.433 213.027 284.433 173.272C284.433 133.518 252.206 101.291 212.451 101.291C172.697 101.291 140.47 133.518 140.47 173.272C140.47 213.027 172.697 245.254 212.451 245.254Z" fill="#E4B61A"/>
<path d="M213.155 290.286L190.414 251.439L167.673 212.592L212.686 212.321L257.699 212.05L235.427 251.168L213.155 290.286Z" fill="#E4B61A"/>
<path d="M213.029 198.645C227.292 198.645 238.855 187.083 238.855 172.82C238.855 158.556 227.292 146.994 213.029 146.994C198.766 146.994 187.203 158.556 187.203 172.82C187.203 187.083 198.766 198.645 213.029 198.645Z" fill="white"/>
<path d="M210.786 0.369852C210.786 0.369852 195.384 -3.96891 190.828 17.074C186.272 38.117 189.743 48.7469 189.743 48.7469L224.128 44.7336C224.128 44.7336 233.89 6.7695 210.786 0.369852Z" fill="#2F2E41"/>
<path d="M187.743 91.5114C187.743 91.5114 165.15 93.7616 169.174 102.883C173.198 112.004 173.198 112.809 173.198 112.809L193.05 148.221L199.489 141.514C199.489 141.514 192.245 125.686 192.245 120.589C192.245 115.492 184.734 106.639 184.734 106.639L197.879 105.566L187.743 91.5114Z" fill="#FFB9B9"/>
<path d="M249.656 102.346L257.167 118.711C257.167 118.711 262.801 124.345 268.971 146.88C275.142 169.415 276.483 168.61 276.483 168.61L267.093 170.488C267.093 170.488 256.631 146.075 253.143 144.197C249.655 142.319 245.363 125.15 245.363 125.15L233.023 109.59L236.778 101.273L249.656 102.346Z" fill="#FFB9B9"/>
<path d="M240.534 83.5672L252.07 105.029C252.07 105.029 237.583 98.3223 235.437 113.077L222.292 102.883C222.292 102.883 204.049 108.785 193.05 106.639C193.05 106.639 196.269 96.4443 184.733 91.8837L210.756 88.6644L209.683 83.0307L212.366 77.6652L240.534 83.5672Z" fill="#2F2E41"/>
<path d="M194.659 143.392C194.659 143.392 187.416 142.319 189.294 148.758L193.049 161.635C193.049 161.635 188.221 174.78 195.732 171.829C203.244 168.878 208.073 150.636 208.073 150.636C208.073 150.636 211.292 136.685 208.073 136.685C204.854 136.685 194.659 134.539 195.732 136.685C196.805 138.832 194.659 143.392 194.659 143.392Z" fill="#2F2E41"/>
<path d="M275.678 164.854C275.678 164.854 266.288 162.44 264.142 166.195C261.996 169.951 262.532 182.292 262.532 182.56C262.532 182.828 265.752 185.511 266.825 185.511C267.898 185.511 274.605 197.583 283.726 193.291C292.847 188.999 275.678 164.854 275.678 164.854Z" fill="#2F2E41"/>
<path d="M218.4 24.3441C219.326 18.6403 215.452 13.2662 209.749 12.3406C204.045 11.415 198.671 15.2885 197.745 20.9923C196.82 26.6961 200.693 32.0702 206.397 32.9958C212.101 33.9214 217.475 30.0479 218.4 24.3441Z" fill="#FFB9B9"/>
<path d="M216.658 24.8153C216.658 24.8153 218.804 36.0827 220.682 37.6924C222.56 39.302 206.463 41.7165 206.463 41.7165C206.463 41.7165 208.878 33.9366 205.927 29.9124C202.976 25.8883 216.658 24.8153 216.658 24.8153Z" fill="#FFB9B9"/>
<path d="M244.826 88.6643C243 88.6643 238.348 87.9078 233.132 86.934C228.62 86.0916 223.681 85.0909 219.786 84.2808C215.614 83.4116 212.634 82.7623 212.634 82.7623C212.634 82.7623 211.561 89.4692 208.073 88.6643C205.068 87.9722 196.089 56.6084 193.661 47.9404C193.484 47.3075 193.518 46.634 193.759 46.0223C194 45.4106 194.434 44.8944 194.995 44.5521L207.327 37.0217L210.487 38.2289C210.487 38.2289 215.826 34.1028 218.925 34.0197C222.023 33.9365 227.389 33.1317 227.389 33.1317C227.389 33.1317 233.559 33.6682 234.632 38.2289C235.705 42.7895 236.242 71.2265 240.266 76.3237C244.29 81.4209 249.924 88.6643 244.826 88.6643Z" fill="#D0CDE1"/>
<path d="M207.268 103.688C207.268 103.688 207.268 114.15 214.243 112.541C221.218 110.931 214.779 101.273 214.779 101.273L207.268 103.688Z" fill="#FFB9B9"/>
<path d="M226.584 104.761C226.584 104.761 224.169 117.101 219.072 115.223C213.975 113.345 219.072 102.346 219.072 102.346L226.584 104.761Z" fill="#FFB9B9"/>
<path opacity="0.15" d="M237.852 75.5189C237.852 75.5189 235.225 81.7858 233.133 86.934C228.621 86.0916 223.682 85.0909 219.786 84.2807C220.066 83.5398 220.459 82.8466 220.951 82.2258C222.828 80.0796 221.755 79.543 221.755 79.543C220.146 76.3238 221.487 72.0314 221.487 72.0314C218.268 63.4466 223.097 52.7157 223.097 52.7157L237.852 75.5189Z" fill="black"/>
<path d="M223.901 52.7158C223.901 52.7158 219.072 63.4467 222.292 72.0314C222.292 72.0314 220.95 76.3238 222.56 79.5431C222.56 79.5431 223.633 80.0797 221.755 82.2258C219.877 84.372 218.267 91.8837 219.609 93.4933C220.95 95.103 217.731 98.054 218.536 99.6636C219.34 101.273 217.194 103.419 217.194 103.419C217.194 103.419 225.243 105.029 226.584 107.444C226.584 107.444 228.194 105.566 227.389 103.419C226.584 101.273 227.12 100.468 227.925 99.1271C228.73 97.7857 231.145 94.8347 231.413 93.4933C231.681 92.152 238.656 75.519 238.656 75.519L235.385 45.2079L223.901 52.7158Z" fill="#D0CDE1"/>
<path d="M196.001 45.2041L195.5 45.2952C194.801 45.4219 194.169 45.7912 193.716 46.3381C193.263 46.8849 193.017 47.5742 193.022 48.2844C193.041 50.978 193.193 55.7581 193.855 62.3736C194.928 73.1045 198.684 89.2009 199.488 90.8106C200.767 93.6589 202.199 96.4352 203.781 99.127C206.195 103.151 206.732 101.81 206.195 103.688C206.032 104.205 206.021 104.758 206.164 105.282C206.306 105.805 206.597 106.276 207 106.639C207 106.639 211.829 101.273 216.658 104.224C217.003 103.466 217.186 102.643 217.194 101.81C217.194 100.468 217.999 99.1271 216.658 98.3222C215.317 97.5174 217.463 94.0299 215.317 92.152C213.17 90.274 212.902 90.5423 213.17 88.6644C213.296 87.3876 213.112 86.0993 212.634 84.9086L196.001 45.2041Z" fill="#D0CDE1"/>
<path d="M211.985 9.22916C211.985 9.22916 207.646 20.7268 197.016 25.4995L195.281 15.3034L211.985 9.22916Z" fill="#2F2E41"/>
<path d="M218.268 21.4618C219.082 21.4618 219.743 20.2007 219.743 18.645C219.743 17.0893 219.082 15.8281 218.268 15.8281C217.453 15.8281 216.792 17.0893 216.792 18.645C216.792 20.2007 217.453 21.4618 218.268 21.4618Z" fill="#FFB9B9"/>
</g>
<defs>
<clipPath id="clip0">
<rect width="526" height="407.097" fill="white"/>
</clipPath>
</defs>
</svg>
