<svg width="568" height="357" viewBox="0 0 568 357" fill="none" xmlns="http://www.w3.org/2000/svg">
<g clip-path="url(#clip0)">
<path d="M212.542 149.411C212.542 149.411 259.113 151.654 261.919 167.917C264.724 184.18 207.492 169.599 207.492 169.599L212.542 149.411Z" fill="#A0616A"/>
<path d="M139.037 97.8193C139.037 97.8193 146.893 100.062 153.065 113.521C159.237 126.98 171.581 139.317 171.581 139.317L221.519 148.85L213.103 174.086L165.409 167.917L135.671 151.093L139.037 97.8193Z" fill="#575A89"/>
<path opacity="0.1" d="M139.037 97.8193C139.037 97.8193 146.893 100.062 153.065 113.521C159.237 126.98 171.581 139.317 171.581 139.317L221.519 148.85L213.103 174.086L165.409 167.917L135.671 151.093L139.037 97.8193Z" fill="black"/>
<path d="M521.428 52.1157H462.513V53.2373H521.428V52.1157Z" fill="#3F3D56"/>
<path d="M416.502 52.1157H229.655V53.2373H416.502V52.1157Z" fill="#3F3D56"/>
<path d="M459.707 187.264H16.9974V356.059H459.707V187.264Z" fill="#3F3D56"/>
<path d="M64.9717 72.0233L70.0216 103.988L104.81 105.67L100.882 58.5646L64.9717 72.0233Z" fill="#A0616A"/>
<path d="M28.2196 285.401L26.5363 356.059H79.2799L87.1353 328.02L93.3074 356.059H148.295C148.295 356.059 149.418 275.306 143.246 274.746C137.073 274.185 28.2196 285.401 28.2196 285.401Z" fill="#2F2E41"/>
<path d="M76.1938 80.4352C92.9278 80.4352 106.493 66.8774 106.493 50.153C106.493 33.4286 92.9278 19.8708 76.1938 19.8708C59.4598 19.8708 45.8943 33.4286 45.8943 50.153C45.8943 66.8774 59.4598 80.4352 76.1938 80.4352Z" fill="#A0616A"/>
<path d="M25.1334 288.485L40.8443 211.097L20.0835 108.474L67.8975 90.5428L91.3435 87.7253L103.13 85.5262L111.543 87.7253C111.543 87.7253 145.209 96.137 146.893 102.306C148.576 108.474 140.159 158.944 140.159 158.944L132.304 200.442L149.698 275.026C149.698 275.026 77.3159 299.7 26.2556 288.485H25.1334Z" fill="#575A89"/>
<path opacity="0.1" d="M46.1748 136.793V157.542L112.38 157.633L49.5414 150.813L46.1748 136.793Z" fill="black"/>
<path opacity="0.1" d="M40.4886 194.097L123.607 182.217L40.4886 205.745V194.097Z" fill="black"/>
<path opacity="0.1" d="M172.423 139.597L163.512 171.688L178.595 140.656L172.423 139.597Z" fill="black"/>
<path d="M101.13 19.7832L106.702 17.5538C106.702 17.5538 95.0514 4.7351 78.8425 5.84983L83.4014 0.833752C83.4014 0.833752 72.2578 -3.62489 62.1273 8.0791C56.8019 14.2316 50.6403 21.4636 46.7992 29.6104H40.8322L43.3226 35.0908L34.6062 40.5713L43.5527 39.5869C43.0196 42.588 42.9378 45.6519 43.31 48.6772C43.6938 51.7034 45.2389 54.4622 47.6194 56.3714C47.6194 56.3714 54.5295 42.0765 54.5295 39.8472V45.4205C54.5295 45.4205 60.1012 40.4045 60.1012 37.0606L63.1404 40.9619L64.6599 34.8312L83.4014 40.9619L80.3622 35.9459L92.0123 37.6179L87.4534 31.4872C87.4534 31.4872 100.623 38.7325 101.13 44.8633C101.636 50.9939 105.491 56.8031 105.491 56.8031C105.491 56.8031 115.819 28.1432 101.13 19.7832Z" fill="#2F2E41"/>
<path d="M346.365 131.747H130.901V356.62H346.365V131.747Z" fill="#D0CDE1"/>
<path d="M312.698 181.095H153.345V203.527H312.698V181.095Z" fill="#2C3258"/>
<path d="M285.102 240.538H180.74V251.754H285.102V240.538Z" fill="#2C3258"/>
<path d="M285.304 260.165H180.942V271.381H285.304V260.165Z" fill="#2C3258"/>
<path d="M233.324 279.793H181.143V291.008H233.324V279.793Z" fill="#2C3258"/>
<path d="M315.504 336.432H291.377V347.647H315.504V336.432Z" fill="#2C3258"/>
<path d="M115.471 160.066C115.471 160.066 164.287 152.776 171.581 163.431C178.876 174.086 119.96 179.693 119.96 179.693L115.471 160.066Z" fill="#A0616A"/>
<path d="M25.6946 107.913H22.1788C20.7328 107.909 19.3387 108.451 18.2759 109.431C14.9385 112.528 7.88169 120.521 4.9338 134.831C1.00609 153.897 -5.72714 190.909 9.42262 193.713C24.5724 196.517 123.887 183.058 123.887 183.058L116.593 157.262L44.7721 157.823C44.7721 157.823 45.8943 145.486 43.6499 137.635C41.4055 129.784 25.6946 107.913 25.6946 107.913Z" fill="#575A89"/>
<path d="M229.655 75.6686C242.361 75.6686 252.661 65.3747 252.661 52.6766C252.661 39.9784 242.361 29.6846 229.655 29.6846C216.95 29.6846 206.65 39.9784 206.65 52.6766C206.65 65.3747 216.95 75.6686 229.655 75.6686Z" fill="#D0CDE1"/>
<path d="M334.581 75.6686C347.287 75.6686 357.587 65.3747 357.587 52.6766C357.587 39.9784 347.287 29.6846 334.581 29.6846C321.876 29.6846 311.576 39.9784 311.576 52.6766C311.576 65.3747 321.876 75.6686 334.581 75.6686Z" fill="#3F3D56"/>
<path d="M439.508 76.2292C434.847 76.2292 430.29 74.8479 426.415 72.2599C422.539 69.6719 419.519 65.9934 417.735 61.6897C415.951 57.386 415.485 52.6503 416.394 48.0815C417.303 43.5127 419.548 39.316 422.844 36.0221C426.14 32.7282 430.339 30.485 434.91 29.5762C439.481 28.6674 444.22 29.1339 448.526 30.9165C452.832 32.6992 456.513 35.718 459.102 39.5912C461.692 43.4645 463.074 48.0182 463.074 52.6765C463.067 58.9209 460.582 64.9075 456.164 69.323C451.746 73.7385 445.756 76.2222 439.508 76.2292ZM439.508 30.2452C435.069 30.2452 430.729 31.5608 427.038 34.0256C423.347 36.4903 420.471 39.9936 418.772 44.0924C417.073 48.1912 416.629 52.7013 417.495 57.0526C418.361 61.4038 420.498 65.4007 423.637 68.5377C426.776 71.6748 430.775 73.8111 435.129 74.6767C439.483 75.5422 443.995 75.098 448.097 73.4002C452.198 71.7024 455.703 68.8274 458.169 65.1386C460.635 61.4498 461.952 57.1129 461.952 52.6765C461.945 46.7294 459.578 41.0278 455.37 36.8226C451.163 32.6174 445.458 30.252 439.508 30.2452Z" fill="#3F3D56"/>
<path d="M544.434 76.2292C539.773 76.2292 535.216 74.8479 531.341 72.2599C527.466 69.6719 524.445 65.9934 522.661 61.6897C520.878 57.386 520.411 52.6503 521.32 48.0815C522.23 43.5127 524.474 39.316 527.77 36.0221C531.066 32.7282 535.265 30.485 539.836 29.5762C544.408 28.6674 549.146 29.1339 553.452 30.9165C557.758 32.6992 561.439 35.718 564.028 39.5912C566.618 43.4645 568 48.0182 568 52.6765C567.993 58.9209 565.508 64.9075 561.09 69.323C556.672 73.7385 550.682 76.2222 544.434 76.2292ZM544.434 30.2452C539.995 30.2452 535.655 31.5608 531.964 34.0256C528.274 36.4903 525.397 39.9936 523.698 44.0924C521.999 48.1912 521.555 52.7013 522.421 57.0526C523.287 61.4038 525.425 65.4007 528.563 68.5377C531.702 71.6748 535.701 73.8111 540.055 74.6767C544.409 75.5422 548.922 75.098 553.023 73.4002C557.124 71.7024 560.629 68.8274 563.095 65.1386C565.561 61.4498 566.878 57.1129 566.878 52.6765C566.871 46.7294 564.504 41.0278 560.297 36.8226C556.089 32.6174 550.384 30.252 544.434 30.2452Z" fill="#3F3D56"/>
<path d="M226.484 62.4581L216.514 49.1737L220.105 46.4814L226.969 55.6278L258.525 24.0906L261.699 27.2624L226.484 62.4581Z" fill="#3F3D56"/>
<path d="M467.449 355.44H9.25574V357H467.449V355.44Z" fill="#3F3D56"/>
</g>
<defs>
<clipPath id="clip0">
<rect width="568" height="357" fill="white"/>
</clipPath>
</defs>
</svg>
