<svg width="515" height="362" viewBox="0 0 515 362" fill="none" xmlns="http://www.w3.org/2000/svg">
<g clip-path="url(#clip0)">
<path d="M413.577 336.689C410.234 349.439 398.521 357.406 398.521 357.406C398.521 357.406 392.227 344.703 395.57 331.954C398.912 319.205 410.626 311.237 410.626 311.237C410.626 311.237 416.92 323.94 413.577 336.689Z" fill="#3F3D56"/>
<path d="M408.507 333.992C399.144 343.256 398.097 357.398 398.097 357.398C398.097 357.398 412.229 356.521 421.591 347.257C430.954 337.993 432.001 323.851 432.001 323.851C432.001 323.851 417.869 324.728 408.507 333.992Z" fill="#FF5693"/>
<path d="M69.2691 288.462H86.9013L130.352 271.434C130.352 271.434 161.208 258.82 158.689 282.786C156.17 306.752 151.762 338.917 151.762 338.917C151.762 338.917 137.909 332.61 130.352 334.502C122.795 336.394 127.833 296.03 127.833 296.03C127.833 296.03 66.1205 325.672 60.453 321.888C54.7856 318.104 53.5261 291.616 53.5261 291.616L69.2691 288.462Z" fill="#2F2E41"/>
<path opacity="0.1" d="M69.2691 288.462H86.9013L130.352 271.434C130.352 271.434 161.208 258.82 158.689 282.786C156.17 306.752 151.762 338.917 151.762 338.917C151.762 338.917 137.909 332.61 130.352 334.502C122.795 336.394 127.833 296.03 127.833 296.03C127.833 296.03 66.1205 325.672 60.453 321.888C54.7856 318.104 53.5261 291.616 53.5261 291.616L69.2691 288.462Z" fill="black"/>
<path d="M97.0488 233.16L118.387 263.866L168.135 305.49C168.135 305.49 214.105 316.212 207.808 323.78C201.51 331.348 163.097 316.212 163.097 316.212C163.097 316.212 105.793 274.587 103.904 271.434C102.015 268.28 81.2339 238.638 81.2339 238.638L97.0488 233.16Z" fill="#A0616A"/>
<path opacity="0.1" d="M97.0488 233.16L118.387 263.866L168.135 305.49C168.135 305.49 214.105 316.212 207.808 323.78C201.51 331.348 163.097 316.212 163.097 316.212C163.097 316.212 105.793 274.587 103.904 271.434C102.015 268.28 81.2339 238.638 81.2339 238.638L97.0488 233.16Z" fill="black"/>
<path d="M84.3826 208.366L98.2364 235.485C98.2364 235.485 95.0878 248.729 90.05 249.991C85.0123 251.252 63.6018 233.593 63.6018 233.593L84.3826 208.366Z" fill="#D0CDE1"/>
<path opacity="0.1" d="M84.3826 208.366L98.2364 235.485C98.2364 235.485 95.0878 248.729 90.05 249.991C85.0123 251.252 63.6018 233.593 63.6018 233.593L84.3826 208.366Z" fill="black"/>
<path d="M253.393 274.421L257.486 291.327C257.531 291.516 257.524 291.713 257.465 291.898L238.902 349.998C238.828 350.228 238.678 350.425 238.476 350.558C238.275 350.691 238.034 350.75 237.794 350.727C237.554 350.703 237.329 350.597 237.157 350.428C236.986 350.258 236.877 350.035 236.85 349.795L234.282 327.162C234.265 327.011 234.28 326.859 234.327 326.715L251.366 274.342C251.437 274.124 251.578 273.935 251.766 273.803C251.954 273.672 252.18 273.605 252.409 273.614C252.639 273.623 252.859 273.707 253.036 273.852C253.214 273.998 253.339 274.197 253.393 274.421Z" fill="#2F2E41"/>
<path d="M251.888 275.848L255.666 290.354L239.293 343.331L235.515 326.933L251.888 275.848Z" fill="#F2F2F2"/>
<path d="M169.395 354.683C170.024 356.575 234.885 354.053 235.515 353.422C236.064 352.632 236.528 351.787 236.9 350.899C237.492 349.638 238.034 348.377 238.034 348.377L235.515 327.955L171.284 325.672C171.284 325.672 169.678 342.978 169.35 350.899C169.269 352.899 169.269 354.305 169.395 354.683Z" fill="#2F2E41"/>
<path opacity="0.1" d="M227.329 330.718L228.588 348.377H200.251V330.718H227.329Z" fill="black"/>
<path opacity="0.1" d="M190.805 336.393L190.974 336.36L190.176 343.962H174.433V336.393H190.805Z" fill="black"/>
<path opacity="0.1" d="M169.395 354.683C170.024 356.576 234.885 354.053 235.515 353.422C236.064 352.632 236.528 351.787 236.9 350.899H169.35C169.269 352.899 169.269 354.305 169.395 354.683Z" fill="black"/>
<path d="M93.8283 199.536C109.479 199.536 122.166 186.83 122.166 171.156C122.166 155.482 109.479 142.775 93.8283 142.775C78.178 142.775 65.491 155.482 65.491 171.156C65.491 186.83 78.178 199.536 93.8283 199.536Z" fill="#A0616A"/>
<path d="M91.939 196.383C91.939 196.383 82.4932 212.781 80.6041 221.61C78.7149 230.44 52.2667 203.951 52.2667 203.951L48.8032 194.806C48.8032 194.806 73.6772 183.139 71.788 173.679C69.8988 164.218 91.939 196.383 91.939 196.383Z" fill="#A0616A"/>
<path d="M96.9768 245.576L122.795 279.633L184.508 325.672C184.508 325.672 229.218 335.132 219.142 342.07C209.067 349.007 180.1 335.763 180.1 335.763C180.1 335.763 117.758 302.337 104.533 288.462C91.3093 274.587 66.7502 251.252 66.7502 251.252L96.9768 245.576Z" fill="#A0616A"/>
<path d="M62.3422 298.553L69.8988 310.536L114.998 296.326C124.893 293.208 135.744 294.355 144.521 299.893C152.392 304.86 157.43 312.743 146.095 324.411C123.425 347.746 108.312 335.132 108.312 335.132C108.312 335.132 32.1156 371.081 19.5212 353.422C6.92682 335.763 6.29712 326.934 6.29712 326.934C6.29712 326.934 54.7855 296.661 62.3422 298.553Z" fill="#2F2E41"/>
<path d="M156.8 340.178C156.8 340.178 176.951 353.422 153.022 359.729C129.093 366.036 111.46 357.206 111.46 357.206C111.46 357.206 90.6797 357.206 90.6797 346.485C90.6797 335.763 97.6066 334.502 97.6066 334.502L119.017 337.655C119.017 337.655 144.836 330.718 156.8 340.178Z" fill="#D0CDE1"/>
<path d="M117.075 164.016C119.003 164.877 120.916 165.897 123.013 166.147C125.11 166.397 127.498 165.663 128.49 163.797C129.026 162.788 129.087 161.602 129.112 160.46C129.188 156.997 128.938 153.253 126.746 150.573C125.352 148.867 123.316 147.792 121.873 146.127C120.838 144.935 120.15 143.49 119.409 142.096C116.601 136.815 112.445 131.74 106.668 130.217C104.255 129.581 101.725 129.612 99.2306 129.648L84.6825 129.853C82.3283 129.887 79.9377 129.925 77.684 130.608C73.0014 132.026 69.592 135.969 66.4695 139.741C64.1334 142.562 61.7911 145.413 60.0378 148.631C57.5241 153.326 56.2531 158.588 56.3458 163.915C56.3263 165.281 56.5024 166.643 56.8688 167.959C57.2974 169.166 57.8284 170.334 58.4559 171.451C61.1842 176.818 62.8041 183.521 59.7316 188.698C65.0689 186.515 70.3497 183.652 73.8705 179.079C75.4455 177.034 76.6807 174.639 78.7797 173.138C80.8787 171.637 84.2989 171.507 85.6456 173.71C86.1085 174.601 86.3469 175.592 86.3399 176.596C86.4383 178.25 86.4356 179.967 87.1357 181.468C87.8357 182.969 89.5032 184.18 91.0953 183.731C93.837 182.957 93.5744 178.743 95.6862 176.829C97.2899 175.375 99.7642 175.653 101.825 174.993C104.225 174.224 106.026 172.141 107.053 169.835C107.833 168.083 107.821 163.497 109.298 162.548C111.149 161.358 115.359 163.25 117.075 164.016Z" fill="#2F2E41"/>
<path d="M46.5538 191.815C47.8286 191.474 49.1708 191.477 50.4438 191.824C54.4861 192.911 63.5479 195.789 65.4908 200.167C68.0097 205.843 76.8258 214.673 76.8258 214.673C76.8258 214.673 88.7905 226.655 86.2716 234.854C83.7527 243.053 74.3069 252.513 74.3069 252.513C74.3069 252.513 76.8258 291.615 64.2314 301.706C51.637 311.797 46.5992 304.86 46.5992 314.32C46.5992 323.78 7.55664 353.422 0 335.132C0 335.132 3.77832 301.076 2.51888 289.093C1.2776 277.283 3.09477 203.598 46.5538 191.815Z" fill="#D0CDE1"/>
<path d="M66.7503 207.735C66.7503 207.735 105.163 236.116 98.2363 248.099C98.2363 248.099 74.9367 259.451 69.8989 258.82C64.8612 258.189 45.3399 236.116 40.3021 234.224C35.2644 232.332 32.7455 198.275 66.7503 207.735Z" fill="#D0CDE1"/>
<path d="M238.371 144.976C255.552 144.976 269.48 131.027 269.48 113.82C269.48 96.6127 255.552 82.6636 238.371 82.6636C221.191 82.6636 207.263 96.6127 207.263 113.82C207.263 131.027 221.191 144.976 238.371 144.976Z" fill="#F2F2F2"/>
<path d="M495.313 73.3562H320.985V36.8223H495.313V73.3562ZM321.753 72.587H494.545V37.5914H321.753V72.587Z" fill="#3F3D56"/>
<path d="M482.642 44.1292H309.082V79.8939H482.642V44.1292Z" fill="#FF5693"/>
<path d="M199.366 9.99876C200.851 9.99876 202.054 8.79351 202.054 7.30675C202.054 5.82 200.851 4.61475 199.366 4.61475C197.882 4.61475 196.678 5.82 196.678 7.30675C196.678 8.79351 197.882 9.99876 199.366 9.99876Z" fill="#FF5693"/>
<path d="M208.582 9.99876C210.066 9.99876 211.27 8.79351 211.27 7.30675C211.27 5.82 210.066 4.61475 208.582 4.61475C207.097 4.61475 205.894 5.82 205.894 7.30675C205.894 8.79351 207.097 9.99876 208.582 9.99876Z" fill="#FF5693"/>
<path d="M217.798 9.99876C219.282 9.99876 220.485 8.79351 220.485 7.30675C220.485 5.82 219.282 4.61475 217.798 4.61475C216.313 4.61475 215.11 5.82 215.11 7.30675C215.11 8.79351 216.313 9.99876 217.798 9.99876Z" fill="#FF5693"/>
<path d="M515 210.743H191.687V0H515V210.743ZM192.455 209.974H514.232V0.769136H192.455V209.974Z" fill="#3F3D56"/>
<path d="M514.616 11.6658H192.071V12.4349H514.616V11.6658Z" fill="#3F3D56"/>
<path d="M200.134 9.22974C199.527 9.22974 198.933 9.04931 198.428 8.71126C197.923 8.3732 197.529 7.89271 197.296 7.33054C197.064 6.76838 197.003 6.14979 197.122 5.553C197.24 4.95621 197.533 4.40802 197.962 3.97776C198.392 3.5475 198.939 3.25449 199.535 3.13578C200.131 3.01707 200.749 3.07799 201.31 3.31085C201.871 3.54371 202.351 3.93804 202.688 4.44397C203.026 4.94991 203.206 5.54472 203.206 6.1532C203.205 6.96886 202.881 7.75084 202.305 8.3276C201.73 8.90436 200.949 9.2288 200.134 9.22974ZM200.134 3.8458C199.679 3.8458 199.233 3.98112 198.854 4.23466C198.476 4.48821 198.18 4.84858 198.006 5.2702C197.831 5.69182 197.786 6.15576 197.875 6.60336C197.964 7.05095 198.183 7.46209 198.505 7.78479C198.827 8.10748 199.238 8.32724 199.685 8.41627C200.132 8.50531 200.595 8.45961 201.016 8.28497C201.437 8.11032 201.797 7.81458 202.05 7.43513C202.303 7.05568 202.438 6.60956 202.438 6.1532C202.438 5.54146 202.195 4.95497 201.763 4.52241C201.331 4.08984 200.745 3.84651 200.134 3.8458V3.8458Z" fill="#3F3D56"/>
<path d="M209.35 9.22974C208.742 9.22974 208.148 9.04931 207.643 8.71126C207.138 8.3732 206.744 7.89271 206.512 7.33054C206.279 6.76838 206.219 6.14979 206.337 5.553C206.456 4.95621 206.748 4.40802 207.178 3.97776C207.607 3.5475 208.155 3.25449 208.751 3.13578C209.347 3.01707 209.964 3.07799 210.525 3.31085C211.087 3.54371 211.567 3.93804 211.904 4.44397C212.242 4.94991 212.422 5.54472 212.422 6.1532C212.421 6.96886 212.097 7.75084 211.521 8.3276C210.945 8.90436 210.164 9.2288 209.35 9.22974V9.22974ZM209.35 3.8458C208.894 3.8458 208.449 3.98112 208.07 4.23466C207.691 4.48821 207.396 4.84858 207.221 5.2702C207.047 5.69182 207.001 6.15576 207.09 6.60336C207.179 7.05095 207.399 7.46209 207.721 7.78479C208.043 8.10748 208.454 8.32724 208.9 8.41627C209.347 8.50531 209.811 8.45961 210.232 8.28497C210.653 8.11032 211.012 7.81458 211.266 7.43513C211.519 7.05568 211.654 6.60956 211.654 6.1532C211.653 5.54146 211.41 4.95497 210.978 4.52241C210.546 4.08984 209.961 3.84651 209.35 3.8458V3.8458Z" fill="#3F3D56"/>
<path d="M218.566 9.22974C217.958 9.22974 217.364 9.04931 216.859 8.71125C216.354 8.3732 215.96 7.89271 215.728 7.33055C215.495 6.76838 215.434 6.14979 215.553 5.553C215.671 4.95621 215.964 4.40802 216.393 3.97776C216.823 3.5475 217.37 3.25449 217.966 3.13578C218.562 3.01707 219.18 3.07799 219.741 3.31085C220.302 3.5437 220.782 3.93803 221.12 4.44396C221.457 4.9499 221.637 5.54471 221.637 6.1532C221.636 6.96886 221.312 7.75084 220.737 8.3276C220.161 8.90436 219.38 9.22879 218.566 9.22974V9.22974ZM218.566 3.8458C218.11 3.84579 217.664 3.98112 217.286 4.23466C216.907 4.4882 216.611 4.84857 216.437 5.27019C216.263 5.69182 216.217 6.15576 216.306 6.60335C216.395 7.05094 216.614 7.46209 216.936 7.78478C217.259 8.10748 217.669 8.32724 218.116 8.41627C218.563 8.5053 219.026 8.45961 219.447 8.28497C219.868 8.11033 220.228 7.81458 220.481 7.43513C220.734 7.05568 220.869 6.60956 220.869 6.1532C220.869 5.54146 220.626 4.95498 220.194 4.52241C219.762 4.08984 219.176 3.84651 218.566 3.8458V3.8458Z" fill="#3F3D56"/>
<path d="M293.721 12.0503H292.953V210.657H293.721V12.0503Z" fill="#3F3D56"/>
<path d="M386.07 109.698H329.625V117.389H386.07V109.698Z" fill="#F2F2F2"/>
<path d="M474.77 109.698H418.325V117.389H474.77V109.698Z" fill="#F2F2F2"/>
<path d="M389.526 113.928H332.313V105.468H389.526V113.928ZM333.081 113.159H388.758V106.237H333.081V113.159Z" fill="#3F3D56"/>
<path d="M386.07 169.306H329.625V176.997H386.07V169.306Z" fill="#F2F2F2"/>
<path d="M389.526 173.536H332.313V165.076H389.526V173.536ZM333.081 172.767H388.758V165.845H333.081V172.767Z" fill="#3F3D56"/>
<path d="M474.962 138.733H329.817V146.424H474.962V138.733Z" fill="#F2F2F2"/>
<path d="M478.418 143.732H332.505V135.272H478.418V143.732ZM333.273 142.963H477.65V136.041H333.273V142.963Z" fill="#3F3D56"/>
<path d="M478.226 113.928H421.013V105.468H478.226V113.928ZM421.781 113.159H477.458V106.237H421.781V113.159Z" fill="#3F3D56"/>
<path d="M243.636 136.827C237.389 136.827 231.281 134.972 226.087 131.496C220.892 128.02 216.844 123.079 214.453 117.298C212.062 111.518 211.437 105.157 212.656 99.0201C213.874 92.8834 216.883 87.2465 221.3 82.8222C225.718 78.3979 231.346 75.3849 237.474 74.1643C243.601 72.9436 249.952 73.5701 255.724 75.9645C261.496 78.3589 266.429 82.4137 269.9 87.6162C273.371 92.8186 275.223 98.935 275.223 105.192C275.214 113.579 271.883 121.62 265.961 127.551C260.039 133.482 252.01 136.818 243.636 136.827ZM243.636 74.5151C237.578 74.5151 231.656 76.3142 226.619 79.685C221.582 83.0559 217.656 87.8469 215.337 93.4524C213.019 99.0578 212.412 105.226 213.594 111.177C214.776 117.127 217.693 122.593 221.977 126.884C226.261 131.174 231.719 134.096 237.66 135.279C243.602 136.463 249.761 135.855 255.358 133.534C260.955 131.212 265.738 127.28 269.104 122.235C272.47 117.19 274.266 111.259 274.266 105.192C274.257 97.0587 271.027 89.2613 265.285 83.5103C259.542 77.7593 251.757 74.5243 243.636 74.5151Z" fill="#3F3D56"/>
<path d="M493.463 356.838H358.021V357.796H493.463V356.838Z" fill="#3F3D56"/>
</g>
<defs>
<clipPath id="clip0">
<rect width="515" height="362" fill="white"/>
</clipPath>
</defs>
</svg>
