<svg width="558" height="425" viewBox="0 0 558 425" fill="none" xmlns="http://www.w3.org/2000/svg">
<g clip-path="url(#clip0)">
<path d="M558 383.244H0.137939V424.446H558V383.244Z" fill="#E6E6E6"/>
<path d="M557.226 383.279H0V381.901H557.476L557.226 383.279Z" fill="#3F3D56"/>
<path d="M437.664 158.595V280.566H120.474V158.595C120.473 118.118 135.95 79.1719 163.733 49.7352C191.516 20.2984 229.503 2.59876 269.913 0.261588C272.941 0.0850379 275.993 -0.00215475 279.069 8.77034e-06C280.822 8.77034e-06 282.568 0.026152 284.301 0.0915564C324.542 1.36496 362.779 17.9471 391.21 46.4536C392.067 47.3103 392.911 48.1736 393.754 49.05C421.947 78.5513 437.674 117.789 437.664 158.595V158.595Z" fill="#E6E6E6"/>
<path d="M284.301 0.0915853V280.566H269.913V0.261588C272.941 0.0850379 275.993 -0.00215475 279.069 8.77033e-06C280.822 8.77033e-06 282.568 0.0261557 284.301 0.0915853Z" fill="white"/>
<path d="M405.951 63.438H152.186C155.964 58.405 160.037 53.6005 164.383 49.05H393.754C398.101 53.6005 402.174 58.405 405.951 63.438V63.438Z" fill="white"/>
<path d="M413.525 104.64H301.109V294.954H413.525V104.64Z" fill="white"/>
<path d="M340.311 136.792H323.307V153.796H340.311V136.792Z" fill="#E6E6E6"/>
<path d="M367.707 136.792H350.703V153.796H367.707V136.792Z" fill="#E6E6E6"/>
<path d="M395.103 136.792H378.099V153.796H395.103V136.792Z" fill="#E6E6E6"/>
<path d="M340.784 175.524H323.779V192.528H340.784V175.524Z" fill="#E6E6E6"/>
<path d="M368.179 175.524H351.175V192.528H368.179V175.524Z" fill="#E6E6E6"/>
<path d="M395.575 175.524H378.571V192.528H395.575V175.524Z" fill="#E6E6E6"/>
<path d="M341.256 214.256H324.251V231.261H341.256V214.256Z" fill="#E6E6E6"/>
<path d="M368.652 214.256H351.647V231.261H368.652V214.256Z" fill="#E6E6E6"/>
<path d="M396.048 214.256H379.043V231.261H396.048V214.256Z" fill="#E6E6E6"/>
<path d="M341.728 252.988H324.724V269.993H341.728V252.988Z" fill="#E6E6E6"/>
<path d="M369.124 252.988H352.12V269.993H369.124V252.988Z" fill="#E6E6E6"/>
<path d="M396.52 252.988H379.516V269.993H396.52V252.988Z" fill="#E6E6E6"/>
<path d="M341.728 252.988H324.724V269.993H341.728V252.988Z" fill="#E6E6E6"/>
<path d="M369.124 252.988H352.12V269.993H369.124V252.988Z" fill="#E6E6E6"/>
<path d="M396.52 252.988H379.516V269.993H396.52V252.988Z" fill="#E6E6E6"/>
<path d="M158.178 241.869C171.121 241.869 181.614 231.376 181.614 218.433C181.614 205.489 171.121 194.996 158.178 194.996C145.234 194.996 134.742 205.489 134.742 218.433C134.742 231.376 145.234 241.869 158.178 241.869Z" fill="white"/>
<path d="M158.242 218.433H158.307L159.466 284.878H157.019L158.242 218.433Z" fill="white"/>
<path d="M162.51 254.625L161.97 253.6L158.096 255.639L158.636 256.665L162.51 254.625Z" fill="white"/>
<path d="M227.08 219.475C246.763 219.475 262.719 203.519 262.719 183.836C262.719 164.153 246.763 148.197 227.08 148.197C207.397 148.197 191.441 164.153 191.441 183.836C191.441 203.519 207.397 219.475 227.08 219.475Z" fill="white"/>
<path d="M227.178 183.836H227.276L229.038 284.878H225.318L227.178 183.836Z" fill="white"/>
<path d="M233.667 238.873L232.846 237.314L226.955 240.415L227.776 241.975L233.667 238.873Z" fill="white"/>
<path d="M153.573 149.805L159.594 144.99C154.917 144.474 152.995 147.024 152.208 149.043C148.554 147.526 144.577 149.515 144.577 149.515L156.623 153.888C156.015 152.265 154.957 150.848 153.573 149.805V149.805Z" fill="white"/>
<path d="M217.011 110.565L223.032 105.75C218.355 105.234 216.433 107.784 215.646 109.803C211.992 108.286 208.015 110.275 208.015 110.275L220.061 114.648C219.453 113.025 218.395 111.608 217.011 110.565V110.565Z" fill="white"/>
<path d="M192.813 147.843L198.834 143.028C194.157 142.512 192.235 145.062 191.448 147.081C187.794 145.564 183.817 147.553 183.817 147.553L195.863 151.926C195.255 150.303 194.197 148.886 192.813 147.843V147.843Z" fill="white"/>
<path d="M454.341 266.178H103.797V294.954H454.341V266.178Z" fill="#E6E6E6"/>
<path d="M51.4402 341.084C51.4402 341.084 -19.4673 308.441 5.44243 285.805C30.3522 263.169 51.4402 341.084 51.4402 341.084Z" fill="#E6E6E6"/>
<path d="M50.206 348.701C50.206 348.701 17.6142 241.615 65.6068 246.736C113.599 251.857 50.206 348.701 50.206 348.701Z" fill="#E6E6E6"/>
<path d="M26.4431 339.203L27.811 357.116L27.8328 357.426C27.8315 360.223 27.9728 363.019 28.2562 365.802C30.1126 384.073 38.0921 392.4 47.4179 392.4C56.7436 392.4 64.3757 384.073 66.2321 365.802C66.5155 363.019 66.6568 360.223 66.6555 357.426L66.6664 357.176L66.6718 357.116L68.0452 339.203H26.4431Z" fill="#E6E6E6"/>
<path d="M66.6718 357.116L66.6664 357.176L66.6555 357.426C66.6568 360.223 66.5155 363.019 66.2321 365.802H28.2562C27.9728 363.019 27.8315 360.223 27.8327 357.426L27.811 357.116H66.6718Z" fill="white"/>
<path d="M525.872 341.084C525.872 341.084 454.965 308.441 479.874 285.805C504.784 263.169 525.872 341.084 525.872 341.084Z" fill="#E6E6E6"/>
<path d="M524.638 348.701C524.638 348.701 492.046 241.615 540.039 246.736C588.031 251.857 524.638 348.701 524.638 348.701Z" fill="#E6E6E6"/>
<path d="M500.875 339.203L502.243 357.116L502.265 357.426C502.263 360.223 502.405 363.019 502.688 365.802C504.545 384.073 512.524 392.4 521.85 392.4C531.175 392.4 538.808 384.073 540.664 365.802C540.947 363.019 541.089 360.223 541.087 357.426L541.098 357.176L541.104 357.116L542.477 339.203H500.875Z" fill="#E6E6E6"/>
<path d="M541.104 357.116L541.098 357.176L541.087 357.426C541.089 360.223 540.947 363.019 540.664 365.802H502.688C502.405 363.019 502.263 360.223 502.265 357.426L502.243 357.116H541.104Z" fill="white"/>
<path d="M431.725 405.933L427.076 406.479C423.404 408.693 419.094 409.526 414.321 409.357C413.655 409.337 413.005 409.143 412.437 408.795C411.868 408.446 411.401 407.955 411.081 407.371V407.371C410.803 406.858 410.647 406.288 410.626 405.705C410.604 405.122 410.717 404.542 410.957 404.01C411.196 403.478 411.555 403.008 412.005 402.638C412.456 402.267 412.986 402.005 413.554 401.873L417.086 401.05L425.61 392.714L430.752 383.408L438.221 384.264L439.776 396.085C439.973 398.45 439.244 400.799 437.742 402.637C436.239 404.474 434.082 405.656 431.725 405.933V405.933Z" fill="#FFB8B8"/>
<path d="M359.322 399.953L354.766 401.025C351.37 403.643 347.183 404.962 342.422 405.337C341.757 405.393 341.09 405.275 340.486 404.993C339.881 404.712 339.361 404.278 338.976 403.733V403.733C338.642 403.256 338.422 402.707 338.334 402.13C338.246 401.553 338.293 400.964 338.47 400.408C338.647 399.853 338.95 399.345 339.355 398.926C339.761 398.506 340.257 398.186 340.807 397.99L344.222 396.77L351.741 387.517L355.789 377.685H363.307L366.199 389.252C366.664 391.579 366.207 393.996 364.924 395.992C363.641 397.989 361.632 399.409 359.322 399.953Z" fill="#FFB8B8"/>
<path d="M355.587 378.339L364.089 379.647L377.496 311.958L400.713 272.391L428.835 387.495L439.299 389.457C438.126 324.637 443.853 243.033 430.797 233.151L373.899 239.691L349.047 306.399L355.587 378.339Z" fill="#2F2E41"/>
<path d="M396.789 132.435C407.625 132.435 416.409 123.651 416.409 112.815C416.409 101.979 407.625 93.195 396.789 93.195C385.953 93.195 377.169 101.979 377.169 112.815C377.169 123.651 385.953 132.435 396.789 132.435Z" fill="#FFB8B8"/>
<path d="M424.257 142.899L400.713 146.823L394.827 125.895L411.831 120.663L424.257 142.899Z" fill="#FFB8B8"/>
<path d="M434.067 235.767L371.283 241.653C376.316 224.151 380.928 206.71 377.169 189.333C372.396 173.819 377.003 164.593 389.595 157.287L398.097 138.321L420.987 135.705C427.049 145.451 429.528 157.004 428 168.379C424.738 193.115 425.619 216.069 434.067 235.767Z" fill="#E4B61A"/>
<path d="M396.347 89.6427C389.799 91.1387 382.346 93.2584 381.929 95.2286C375.193 96.9259 370.109 100.992 369.071 107.19C368.984 107.726 369.016 108.274 369.164 108.796C369.312 109.318 369.573 109.801 369.928 110.212C370.283 110.622 370.723 110.95 371.219 111.171C371.714 111.393 372.252 111.503 372.795 111.495C376.458 111.447 381.957 111.097 385.588 109.58C396.136 116.377 397.907 134.054 393.3 146.087L400.549 145.422L408.049 123.468L409.964 144.559L426.507 142.372L424.376 115.477C423.721 109.138 421.564 103.047 418.083 97.7088C417.722 97.1728 417.326 96.6604 416.899 96.1749C414.383 93.3318 411.143 91.2233 407.524 90.0732C403.906 88.9231 400.043 88.7743 396.347 89.6427V89.6427Z" fill="#2F2E41"/>
<path d="M354.8 412.679C354.764 412.999 354.796 413.323 354.894 413.63C354.991 413.937 355.152 414.22 355.365 414.461C355.579 414.702 355.841 414.896 356.134 415.029C356.427 415.163 356.744 415.234 357.066 415.237L364.424 415.313C364.82 415.285 365.191 415.108 365.462 414.818C365.733 414.527 365.883 414.145 365.883 413.748V413.748C365.883 413.434 365.789 413.128 365.614 412.868C365.438 412.608 365.188 412.407 364.897 412.291L362.727 411.423L359.57 407.003H357.044C355.804 408.656 355.03 410.612 354.801 412.666L354.8 412.679H354.8Z" fill="#FFB8B8"/>
<path d="M337.19 412.679C337.226 412.999 337.194 413.323 337.096 413.63C336.999 413.937 336.838 414.22 336.625 414.461C336.411 414.702 336.15 414.896 335.857 415.029C335.564 415.163 335.246 415.234 334.924 415.237L327.566 415.313C327.17 415.285 326.799 415.108 326.528 414.818C326.257 414.527 326.107 414.145 326.107 413.748V413.748C326.107 413.434 326.201 413.128 326.376 412.868C326.552 412.608 326.802 412.407 327.093 412.291L329.264 411.423L332.42 407.003H334.946C336.186 408.656 336.961 410.612 337.189 412.666L337.19 412.679Z" fill="#FFB8B8"/>
<path d="M331.789 407.003H335.577L348.836 349.548L355.781 407.635H360.201L366.199 332.816L335.577 332.501L331.789 407.003Z" fill="#3F3D56"/>
<path d="M314.742 301.563H319.793V289.567L320.942 287.269C321.172 286.807 321.291 286.298 321.287 285.783C321.284 285.267 321.158 284.76 320.922 284.302C320.685 283.844 320.343 283.448 319.924 283.147C319.506 282.846 319.022 282.649 318.512 282.57V282.57C318.046 282.499 317.569 282.529 317.116 282.658C316.662 282.788 316.242 283.014 315.883 283.321C315.525 283.628 315.238 284.009 315.041 284.438C314.844 284.867 314.742 285.333 314.742 285.805V301.563V301.563Z" fill="#FFB8B8"/>
<path d="M344.732 271.888C351.183 271.888 356.413 266.659 356.413 260.208C356.413 253.757 351.183 248.527 344.732 248.527C338.281 248.527 333.052 253.757 333.052 260.208C333.052 266.659 338.281 271.888 344.732 271.888Z" fill="#FFB8B8"/>
<path d="M339.997 280.096H351.993V266.206H339.997V280.096Z" fill="#FFB8B8"/>
<path d="M334.315 334.395C344.933 340.947 356.159 340.307 367.778 335.026L365.252 276.308L351.993 275.676L338.103 277.571L331.158 283.253L334.315 334.395Z" fill="#E4B61A"/>
<path d="M321.687 313.559L335.577 302.826L331.158 283.253L322.95 298.406L320.424 295.881L312.848 301.563L321.687 313.559Z" fill="#E4B61A"/>
<path d="M383.345 277.316L378.927 279.765L373.112 269.272L370.993 267.819C370.568 267.528 370.217 267.14 369.97 266.687C369.723 266.234 369.587 265.73 369.572 265.214C369.557 264.699 369.664 264.187 369.885 263.721C370.105 263.255 370.433 262.848 370.84 262.532V262.532C371.213 262.243 371.645 262.038 372.104 261.932C372.564 261.825 373.041 261.819 373.503 261.914C373.966 262.01 374.402 262.204 374.782 262.483C375.162 262.762 375.477 263.121 375.706 263.534L377.53 266.824L383.345 277.316Z" fill="#FFB8B8"/>
<path d="M358.623 294.934L375.386 286.034L384.193 281.359L385.456 273.782L379.774 268.1L372.829 272.52L373.46 277.571L365.252 276.308L358.623 294.934Z" fill="#E4B61A"/>
<path d="M347.258 269.678C354.929 269.678 361.148 263.459 361.148 255.788C361.148 248.117 354.929 241.898 347.258 241.898C339.586 241.898 333.367 248.117 333.367 255.788C333.367 263.459 339.586 269.678 347.258 269.678Z" fill="#2F2E41"/>
<path d="M354.834 246.317C358.321 246.317 361.148 243.491 361.148 240.004C361.148 236.517 358.321 233.69 354.834 233.69C351.347 233.69 348.521 236.517 348.521 240.004C348.521 243.491 351.347 246.317 354.834 246.317Z" fill="#2F2E41"/>
<path d="M354.528 245.282C355.78 245.936 357.214 246.151 358.603 245.893C359.991 245.635 361.252 244.919 362.186 243.859C363.119 242.799 363.67 241.458 363.751 240.048C363.832 238.638 363.438 237.242 362.632 236.083C363.362 236.632 363.964 237.333 364.396 238.138C364.829 238.943 365.081 239.832 365.137 240.744C365.192 241.656 365.048 242.569 364.716 243.42C364.384 244.271 363.871 245.039 363.213 245.673C362.555 246.306 361.767 246.789 360.903 247.088C360.04 247.387 359.122 247.495 358.213 247.405C357.304 247.314 356.426 247.028 355.638 246.564C354.851 246.101 354.173 245.472 353.653 244.722C353.929 244.932 354.222 245.12 354.528 245.282V245.282Z" fill="#2F2E41"/>
<path d="M393.519 255.387L393.953 270.57C394.013 272.663 393.277 274.701 391.895 276.273C390.512 277.846 388.585 278.836 386.502 279.044C385.167 279.178 383.82 278.985 382.577 278.483C381.333 277.98 380.231 277.183 379.363 276.16C378.496 275.138 377.89 273.919 377.598 272.611C377.306 271.302 377.336 269.941 377.686 268.647L381.093 256.041L390.903 202.413L390.249 171.021L411.177 170.367L407.253 205.683L393.519 255.387Z" fill="#FFB8B8"/>
<path d="M412.485 173.637C404.903 170.749 396.523 170.749 388.941 173.637L390.249 147.477C390.249 144.702 391.351 142.04 393.314 140.078C395.276 138.115 397.938 137.013 400.713 137.013V137.013C403.488 137.013 406.15 138.115 408.112 140.078C410.074 142.04 411.177 144.702 411.177 147.477L412.485 173.637Z" fill="#E4B61A"/>
</g>
<defs>
<clipPath id="clip0">
<rect width="558" height="424.446" fill="white"/>
</clipPath>
</defs>
</svg>
